<?xml version="1.0" encoding="utf-8"?>
<!-- Generator: Adobe Illustrator 27.5.0, SVG Export Plug-In . SVG Version: 6.00 Build 0)  -->
<svg version="1.1" xmlns="http://www.w3.org/2000/svg" xmlns:xlink="http://www.w3.org/1999/xlink" x="0px" y="0px"
	 viewBox="0 0 700 500" style="enable-background:new 0 0 700 500;" xml:space="preserve">
<g id="Background_simple">
	<g id="freepik--background-simple--inject-2">
		<path style="fill:#92E3A9;" d="M518.642,87.713c0,0-32.924-45.225-89.711-40.448c-56.787,4.777-69.034,65.353-107.112,93.237
			c-19.932,14.603-66.08,0.898-88.127,10.702c-70.477,31.355-83.398,133.023-44.817,180.604
			c33.393,41.24,83.311,55.481,154.523,45.567c71.212-9.913,121.557-14.249,177.562-74.286
			C576.966,243.05,558.184,148.01,518.642,87.713z"/>
		<path style="opacity:0.8;fill:#FFFFFF;enable-background:new    ;" d="M518.642,87.713c0,0-32.924-45.225-89.711-40.448
			c-56.787,4.777-69.034,65.353-107.112,93.237c-19.932,14.603-66.08,0.898-88.127,10.702
			c-70.477,31.355-83.398,133.023-44.817,180.604c33.393,41.24,83.311,55.481,154.523,45.567
			c71.212-9.913,121.557-14.249,177.562-74.286C576.966,243.05,558.184,148.01,518.642,87.713z"/>
	</g>
</g>
<g id="Plants">
	<g>
		<path style="fill:#92E3A9;stroke:#FFFFFF;stroke-linecap:round;stroke-linejoin:round;stroke-miterlimit:10;" d="M610.666,316.457
			c-0.334-12.487,0.633-33.788-10.32-42.554c-9.62-7.7-17.097,2.752-19.793,11.177c-6.545,20.455-3.47,43.032-3.455,64.106
			c0,0.323-0.003,0.646-0.014,0.969c-0.517,15.532-2.382,32.348-0.685,47.854c0,0-1.664-15.534-13.87-8.877
			c-12.205,6.657,6.103,41.61,6.103,41.61s-14.425-10.541-21.082-1.665c-6.657,8.877,8.322,18.863,8.322,18.863
			s-13.87-3.884-13.87,0c0,3.884,4.438,7.212,17.198,8.877h68.794c0,0,11.096-6.103,8.877-12.76
			c-2.219-6.657-13.87-2.774-13.87-2.774s17.753-21.637,16.644-31.068c-1.11-9.432-23.856,1.664-23.856,1.664
			s17.753-44.938,14.425-64.91c-2.622-15.732-14.835-4.964-21.483,1.08C610.292,337.602,610.948,327.016,610.666,316.457z"/>
		<g>
			<path style="opacity:0.5;fill:#FFFFFF;" d="M610.666,316.457c-0.334-12.487,0.633-33.788-10.32-42.554
				c-9.62-7.7-17.097,2.752-19.793,11.177c-6.545,20.455-3.47,43.032-3.455,64.106c0,0.323-0.003,0.646-0.014,0.969
				c-0.517,15.532-2.382,32.348-0.685,47.854c0,0-1.664-15.534-13.87-8.877c-12.205,6.657,6.103,41.61,6.103,41.61
				s-14.425-10.541-21.082-1.665c-6.657,8.877,8.322,18.863,8.322,18.863s-13.87-3.884-13.87,0c0,3.884,4.438,7.212,17.198,8.877
				h68.794c0,0,11.096-6.103,8.877-12.76c-2.219-6.657-13.87-2.774-13.87-2.774s17.753-21.637,16.644-31.068
				c-1.11-9.432-23.856,1.664-23.856,1.664s17.753-44.938,14.425-64.91c-2.622-15.732-14.835-4.964-21.483,1.08
				C610.292,337.602,610.948,327.016,610.666,316.457z"/>
			
				<line style="fill:#FFFFFF;stroke:#FFFFFF;stroke-linecap:round;stroke-linejoin:round;stroke-miterlimit:10;" x1="588.605" y1="456.261" x2="593.598" y2="303.693"/>
			
				<line style="fill:#FFFFFF;stroke:#FFFFFF;stroke-linecap:round;stroke-linejoin:round;stroke-miterlimit:10;" x1="591.379" y1="392.46" x2="617.454" y2="368.049"/>
			
				<line style="fill:#FFFFFF;stroke:#FFFFFF;stroke-linecap:round;stroke-linejoin:round;stroke-miterlimit:10;" x1="603.584" y1="381.364" x2="609.132" y2="365.83"/>
			
				<line style="fill:#FFFFFF;stroke:#FFFFFF;stroke-linecap:round;stroke-linejoin:round;stroke-miterlimit:10;" x1="569.742" y1="411.323" x2="589.714" y2="432.96"/>
			
				<line style="fill:#FFFFFF;stroke:#FFFFFF;stroke-linecap:round;stroke-linejoin:round;stroke-miterlimit:10;" x1="623.002" y1="423.528" x2="589.714" y2="440.727"/>
			
				<line style="fill:#FFFFFF;stroke:#FFFFFF;stroke-linecap:round;stroke-linejoin:round;stroke-miterlimit:10;" x1="605.248" y1="433.515" x2="617.454" y2="432.96"/>
		</g>
		<g>
			
				<line style="fill:#92E3A9;stroke:#92E3A9;stroke-linecap:round;stroke-linejoin:round;stroke-miterlimit:10;" x1="588.605" y1="456.261" x2="593.598" y2="303.693"/>
			
				<line style="fill:#92E3A9;stroke:#92E3A9;stroke-linecap:round;stroke-linejoin:round;stroke-miterlimit:10;" x1="591.379" y1="392.46" x2="617.454" y2="368.049"/>
			
				<line style="fill:#92E3A9;stroke:#92E3A9;stroke-linecap:round;stroke-linejoin:round;stroke-miterlimit:10;" x1="603.584" y1="381.364" x2="609.132" y2="365.83"/>
			
				<line style="fill:#92E3A9;stroke:#92E3A9;stroke-linecap:round;stroke-linejoin:round;stroke-miterlimit:10;" x1="569.742" y1="411.323" x2="589.714" y2="432.96"/>
			
				<line style="fill:#92E3A9;stroke:#92E3A9;stroke-linecap:round;stroke-linejoin:round;stroke-miterlimit:10;" x1="623.002" y1="423.528" x2="589.714" y2="440.727"/>
			
				<line style="fill:#92E3A9;stroke:#92E3A9;stroke-linecap:round;stroke-linejoin:round;stroke-miterlimit:10;" x1="605.248" y1="433.515" x2="617.454" y2="432.96"/>
		</g>
		<g style="opacity:0.8;">
			
				<line style="fill:#FFFFFF;stroke:#FFFFFF;stroke-linecap:round;stroke-linejoin:round;stroke-miterlimit:10;" x1="588.605" y1="456.261" x2="593.598" y2="303.693"/>
			
				<line style="fill:#FFFFFF;stroke:#FFFFFF;stroke-linecap:round;stroke-linejoin:round;stroke-miterlimit:10;" x1="591.379" y1="392.46" x2="617.454" y2="368.049"/>
			
				<line style="fill:#FFFFFF;stroke:#FFFFFF;stroke-linecap:round;stroke-linejoin:round;stroke-miterlimit:10;" x1="603.584" y1="381.364" x2="609.132" y2="365.83"/>
			
				<line style="fill:#FFFFFF;stroke:#FFFFFF;stroke-linecap:round;stroke-linejoin:round;stroke-miterlimit:10;" x1="569.742" y1="411.323" x2="589.714" y2="432.96"/>
			
				<line style="fill:#FFFFFF;stroke:#FFFFFF;stroke-linecap:round;stroke-linejoin:round;stroke-miterlimit:10;" x1="623.002" y1="423.528" x2="589.714" y2="440.727"/>
			
				<line style="fill:#FFFFFF;stroke:#FFFFFF;stroke-linecap:round;stroke-linejoin:round;stroke-miterlimit:10;" x1="605.248" y1="433.515" x2="617.454" y2="432.96"/>
		</g>
	</g>
	<g>
		<g>
			<g>
				<path style="fill:#92E3A9;" d="M493.297,425.43c0,15.515,12.291,28.092,12.291,28.092s12.29-12.577,12.29-28.092
					c0-15.515-12.29-28.092-12.29-28.092S493.297,409.915,493.297,425.43z"/>
				<path style="fill:#92E3A9;" d="M484.783,449.358c5.969,6.73,16.139,7.458,16.139,7.458s0.493-10.184-5.475-16.915
					c-5.969-6.731-16.139-7.459-16.139-7.459S478.814,442.627,484.783,449.358z"/>
				<path style="fill:#92E3A9;" d="M516.099,439.666c-6.266,6.454-6.233,16.651-6.233,16.651s10.193-0.268,16.459-6.723
					c6.266-6.454,6.233-16.651,6.233-16.651S522.365,433.211,516.099,439.666z"/>
			</g>
			<g style="opacity:0.5;">
				<g>
					<path style="fill:#FFFFFF;" d="M493.297,425.43c0,15.515,12.291,28.092,12.291,28.092s12.29-12.577,12.29-28.092
						c0-15.515-12.29-28.092-12.29-28.092S493.297,409.915,493.297,425.43z"/>
					
						<line style="fill:#FFFFFF;stroke:#FFFFFF;stroke-linecap:round;stroke-linejoin:round;stroke-miterlimit:10;" x1="505.587" y1="453.522" x2="505.587" y2="397.338"/>
					
						<line style="fill:#FFFFFF;stroke:#FFFFFF;stroke-linecap:round;stroke-linejoin:round;stroke-miterlimit:10;" x1="505.587" y1="417.308" x2="498.706" y2="411.301"/>
					
						<line style="fill:#FFFFFF;stroke:#FFFFFF;stroke-linecap:round;stroke-linejoin:round;stroke-miterlimit:10;" x1="505.697" y1="426.592" x2="514.216" y2="414.25"/>
					
						<line style="fill:#FFFFFF;stroke:#FFFFFF;stroke-linecap:round;stroke-linejoin:round;stroke-miterlimit:10;" x1="505.587" y1="431.944" x2="495.43" y2="422.879"/>
					
						<line style="fill:#FFFFFF;stroke:#FFFFFF;stroke-linecap:round;stroke-linejoin:round;stroke-miterlimit:10;" x1="505.697" y1="439.154" x2="515.745" y2="430.197"/>
					
						<line style="fill:#FFFFFF;stroke:#FFFFFF;stroke-linecap:round;stroke-linejoin:round;stroke-miterlimit:10;" x1="505.697" y1="445.379" x2="497.832" y2="439.154"/>
				</g>
				<g>
					<path style="fill:#FFFFFF;" d="M484.783,449.358c5.969,6.73,16.139,7.458,16.139,7.458s0.493-10.184-5.475-16.915
						c-5.969-6.731-16.139-7.459-16.139-7.459S478.814,442.627,484.783,449.358z"/>
					
						<line style="fill:#FFFFFF;stroke:#FFFFFF;stroke-linecap:round;stroke-linejoin:round;stroke-miterlimit:10;" x1="500.921" y1="456.816" x2="479.307" y2="432.443"/>
					
						<line style="fill:#FFFFFF;stroke:#FFFFFF;stroke-linecap:round;stroke-linejoin:round;stroke-miterlimit:10;" x1="486.99" y1="441.106" x2="481.694" y2="441.147"/>
					
						<line style="fill:#FFFFFF;stroke:#FFFFFF;stroke-linecap:round;stroke-linejoin:round;stroke-miterlimit:10;" x1="490.609" y1="445.092" x2="489.557" y2="436.46"/>
					
						<line style="fill:#FFFFFF;stroke:#FFFFFF;stroke-linecap:round;stroke-linejoin:round;stroke-miterlimit:10;" x1="492.621" y1="447.456" x2="484.726" y2="447.431"/>
					
						<line style="fill:#FFFFFF;stroke:#FFFFFF;stroke-linecap:round;stroke-linejoin:round;stroke-miterlimit:10;" x1="495.441" y1="450.541" x2="496.355" y2="442.79"/>
					
						<line style="fill:#FFFFFF;stroke:#FFFFFF;stroke-linecap:round;stroke-linejoin:round;stroke-miterlimit:10;" x1="497.836" y1="453.242" x2="492.03" y2="453.566"/>
				</g>
				<g>
					<path style="fill:#FFFFFF;" d="M516.099,439.666c-6.266,6.454-6.233,16.651-6.233,16.651s10.193-0.268,16.459-6.723
						c6.266-6.454,6.233-16.651,6.233-16.651S522.365,433.211,516.099,439.666z"/>
					
						<line style="fill:#FFFFFF;stroke:#FFFFFF;stroke-linecap:round;stroke-linejoin:round;stroke-miterlimit:10;" x1="509.866" y1="456.316" x2="532.558" y2="432.943"/>
					
						<line style="fill:#FFFFFF;stroke:#FFFFFF;stroke-linecap:round;stroke-linejoin:round;stroke-miterlimit:10;" x1="524.492" y1="441.251" x2="524.055" y2="435.973"/>
					
						<line style="fill:#FFFFFF;stroke:#FFFFFF;stroke-linecap:round;stroke-linejoin:round;stroke-miterlimit:10;" x1="520.788" y1="445.157" x2="529.317" y2="443.464"/>
					
						<line style="fill:#FFFFFF;stroke:#FFFFFF;stroke-linecap:round;stroke-linejoin:round;stroke-miterlimit:10;" x1="518.58" y1="447.34" x2="518.016" y2="439.466"/>
					
						<line style="fill:#FFFFFF;stroke:#FFFFFF;stroke-linecap:round;stroke-linejoin:round;stroke-miterlimit:10;" x1="515.714" y1="450.383" x2="523.512" y2="450.716"/>
					
						<line style="fill:#FFFFFF;stroke:#FFFFFF;stroke-linecap:round;stroke-linejoin:round;stroke-miterlimit:10;" x1="513.2" y1="452.973" x2="512.443" y2="447.207"/>
				</g>
			</g>
		</g>
		<g>
			<g>
				
					<line style="fill:#92E3A9;stroke:#92E3A9;stroke-linecap:round;stroke-linejoin:round;stroke-miterlimit:10;" x1="505.587" y1="453.522" x2="505.587" y2="397.338"/>
				
					<line style="fill:#92E3A9;stroke:#92E3A9;stroke-linecap:round;stroke-linejoin:round;stroke-miterlimit:10;" x1="505.587" y1="417.308" x2="498.706" y2="411.301"/>
				
					<line style="fill:#92E3A9;stroke:#92E3A9;stroke-linecap:round;stroke-linejoin:round;stroke-miterlimit:10;" x1="505.697" y1="426.592" x2="514.216" y2="414.25"/>
				
					<line style="fill:#92E3A9;stroke:#92E3A9;stroke-linecap:round;stroke-linejoin:round;stroke-miterlimit:10;" x1="505.587" y1="431.944" x2="495.43" y2="422.879"/>
				
					<line style="fill:#92E3A9;stroke:#92E3A9;stroke-linecap:round;stroke-linejoin:round;stroke-miterlimit:10;" x1="505.697" y1="439.154" x2="515.745" y2="430.197"/>
				
					<line style="fill:#92E3A9;stroke:#92E3A9;stroke-linecap:round;stroke-linejoin:round;stroke-miterlimit:10;" x1="505.697" y1="445.379" x2="497.832" y2="439.154"/>
			</g>
			<g style="opacity:0.7;">
				
					<line style="fill:#FFFFFF;stroke:#FFFFFF;stroke-linecap:round;stroke-linejoin:round;stroke-miterlimit:10;" x1="505.587" y1="453.522" x2="505.587" y2="397.338"/>
				
					<line style="fill:#FFFFFF;stroke:#FFFFFF;stroke-linecap:round;stroke-linejoin:round;stroke-miterlimit:10;" x1="505.587" y1="417.308" x2="498.706" y2="411.301"/>
				
					<line style="fill:#FFFFFF;stroke:#FFFFFF;stroke-linecap:round;stroke-linejoin:round;stroke-miterlimit:10;" x1="505.697" y1="426.592" x2="514.216" y2="414.25"/>
				
					<line style="fill:#FFFFFF;stroke:#FFFFFF;stroke-linecap:round;stroke-linejoin:round;stroke-miterlimit:10;" x1="505.587" y1="431.944" x2="495.43" y2="422.879"/>
				
					<line style="fill:#FFFFFF;stroke:#FFFFFF;stroke-linecap:round;stroke-linejoin:round;stroke-miterlimit:10;" x1="505.697" y1="439.154" x2="515.745" y2="430.197"/>
				
					<line style="fill:#FFFFFF;stroke:#FFFFFF;stroke-linecap:round;stroke-linejoin:round;stroke-miterlimit:10;" x1="505.697" y1="445.379" x2="497.832" y2="439.154"/>
			</g>
		</g>
		<g>
			<g>
				
					<line style="fill:#92E3A9;stroke:#92E3A9;stroke-linecap:round;stroke-linejoin:round;stroke-miterlimit:10;" x1="500.921" y1="456.816" x2="479.307" y2="432.443"/>
				
					<line style="fill:#92E3A9;stroke:#92E3A9;stroke-linecap:round;stroke-linejoin:round;stroke-miterlimit:10;" x1="486.99" y1="441.106" x2="481.694" y2="441.147"/>
				
					<line style="fill:#92E3A9;stroke:#92E3A9;stroke-linecap:round;stroke-linejoin:round;stroke-miterlimit:10;" x1="490.609" y1="445.092" x2="489.557" y2="436.46"/>
				
					<line style="fill:#92E3A9;stroke:#92E3A9;stroke-linecap:round;stroke-linejoin:round;stroke-miterlimit:10;" x1="492.621" y1="447.456" x2="484.726" y2="447.431"/>
				
					<line style="fill:#92E3A9;stroke:#92E3A9;stroke-linecap:round;stroke-linejoin:round;stroke-miterlimit:10;" x1="495.441" y1="450.541" x2="496.355" y2="442.79"/>
				
					<line style="fill:#92E3A9;stroke:#92E3A9;stroke-linecap:round;stroke-linejoin:round;stroke-miterlimit:10;" x1="497.836" y1="453.242" x2="492.03" y2="453.566"/>
			</g>
			<g style="opacity:0.7;">
				
					<line style="fill:#FFFFFF;stroke:#FFFFFF;stroke-linecap:round;stroke-linejoin:round;stroke-miterlimit:10;" x1="500.921" y1="456.816" x2="479.307" y2="432.443"/>
				
					<line style="fill:#FFFFFF;stroke:#FFFFFF;stroke-linecap:round;stroke-linejoin:round;stroke-miterlimit:10;" x1="486.99" y1="441.106" x2="481.694" y2="441.147"/>
				
					<line style="fill:#FFFFFF;stroke:#FFFFFF;stroke-linecap:round;stroke-linejoin:round;stroke-miterlimit:10;" x1="490.609" y1="445.092" x2="489.557" y2="436.46"/>
				
					<line style="fill:#FFFFFF;stroke:#FFFFFF;stroke-linecap:round;stroke-linejoin:round;stroke-miterlimit:10;" x1="492.621" y1="447.456" x2="484.726" y2="447.431"/>
				
					<line style="fill:#FFFFFF;stroke:#FFFFFF;stroke-linecap:round;stroke-linejoin:round;stroke-miterlimit:10;" x1="495.441" y1="450.541" x2="496.355" y2="442.79"/>
				
					<line style="fill:#FFFFFF;stroke:#FFFFFF;stroke-linecap:round;stroke-linejoin:round;stroke-miterlimit:10;" x1="497.836" y1="453.242" x2="492.03" y2="453.566"/>
			</g>
		</g>
		<g>
			<g>
				
					<line style="fill:#92E3A9;stroke:#92E3A9;stroke-linecap:round;stroke-linejoin:round;stroke-miterlimit:10;" x1="509.866" y1="456.316" x2="532.558" y2="432.943"/>
				
					<line style="fill:#92E3A9;stroke:#92E3A9;stroke-linecap:round;stroke-linejoin:round;stroke-miterlimit:10;" x1="524.492" y1="441.251" x2="524.055" y2="435.973"/>
				
					<line style="fill:#92E3A9;stroke:#92E3A9;stroke-linecap:round;stroke-linejoin:round;stroke-miterlimit:10;" x1="520.788" y1="445.157" x2="529.317" y2="443.464"/>
				
					<line style="fill:#92E3A9;stroke:#92E3A9;stroke-linecap:round;stroke-linejoin:round;stroke-miterlimit:10;" x1="518.58" y1="447.34" x2="518.016" y2="439.466"/>
				
					<line style="fill:#92E3A9;stroke:#92E3A9;stroke-linecap:round;stroke-linejoin:round;stroke-miterlimit:10;" x1="515.714" y1="450.383" x2="523.512" y2="450.716"/>
				
					<line style="fill:#92E3A9;stroke:#92E3A9;stroke-linecap:round;stroke-linejoin:round;stroke-miterlimit:10;" x1="513.2" y1="452.973" x2="512.443" y2="447.207"/>
			</g>
			<g style="opacity:0.7;">
				
					<line style="fill:#FFFFFF;stroke:#FFFFFF;stroke-linecap:round;stroke-linejoin:round;stroke-miterlimit:10;" x1="509.866" y1="456.316" x2="532.558" y2="432.943"/>
				
					<line style="fill:#FFFFFF;stroke:#FFFFFF;stroke-linecap:round;stroke-linejoin:round;stroke-miterlimit:10;" x1="524.492" y1="441.251" x2="524.055" y2="435.973"/>
				
					<line style="fill:#FFFFFF;stroke:#FFFFFF;stroke-linecap:round;stroke-linejoin:round;stroke-miterlimit:10;" x1="520.788" y1="445.157" x2="529.317" y2="443.464"/>
				
					<line style="fill:#FFFFFF;stroke:#FFFFFF;stroke-linecap:round;stroke-linejoin:round;stroke-miterlimit:10;" x1="518.58" y1="447.34" x2="518.016" y2="439.466"/>
				
					<line style="fill:#FFFFFF;stroke:#FFFFFF;stroke-linecap:round;stroke-linejoin:round;stroke-miterlimit:10;" x1="515.714" y1="450.383" x2="523.512" y2="450.716"/>
				
					<line style="fill:#FFFFFF;stroke:#FFFFFF;stroke-linecap:round;stroke-linejoin:round;stroke-miterlimit:10;" x1="513.2" y1="452.973" x2="512.443" y2="447.207"/>
			</g>
		</g>
	</g>
	<g>
		<path style="fill:#92E3A9;stroke:#FFFFFF;stroke-linecap:round;stroke-linejoin:round;stroke-miterlimit:10;" d="M102.19,316.457
			c0.334-12.487-0.633-33.788,10.32-42.554c9.62-7.7,17.097,2.752,19.793,11.177c6.545,20.455,3.47,43.032,3.455,64.106
			c0,0.323,0.003,0.646,0.014,0.969c0.517,15.532,2.382,32.348,0.685,47.854c0,0,1.664-15.534,13.87-8.877
			c12.206,6.657-6.103,41.61-6.103,41.61s14.425-10.541,21.082-1.665c6.658,8.877-8.322,18.863-8.322,18.863s13.87-3.884,13.87,0
			c0,3.884-4.438,7.212-17.199,8.877H84.86c0,0-11.096-6.103-8.877-12.76c2.219-6.657,13.87-2.774,13.87-2.774
			S72.1,419.645,73.21,410.213c1.11-9.432,23.856,1.664,23.856,1.664s-17.753-44.938-14.425-64.91
			c2.622-15.732,14.835-4.964,21.483,1.08C102.564,337.602,101.907,327.016,102.19,316.457z"/>
		<g>
			<path style="opacity:0.5;fill:#FFFFFF;" d="M102.19,316.457c0.334-12.487-0.633-33.788,10.32-42.554
				c9.62-7.7,17.097,2.752,19.793,11.177c6.545,20.455,3.47,43.032,3.455,64.106c0,0.323,0.003,0.646,0.014,0.969
				c0.517,15.532,2.382,32.348,0.685,47.854c0,0,1.664-15.534,13.87-8.877c12.206,6.657-6.103,41.61-6.103,41.61
				s14.425-10.541,21.082-1.665c6.658,8.877-8.322,18.863-8.322,18.863s13.87-3.884,13.87,0c0,3.884-4.438,7.212-17.199,8.877H84.86
				c0,0-11.096-6.103-8.877-12.76c2.219-6.657,13.87-2.774,13.87-2.774S72.1,419.645,73.21,410.213
				c1.11-9.432,23.856,1.664,23.856,1.664s-17.753-44.938-14.425-64.91c2.622-15.732,14.835-4.964,21.483,1.08
				C102.564,337.602,101.907,327.016,102.19,316.457z"/>
			
				<line style="fill:#FFFFFF;stroke:#FFFFFF;stroke-linecap:round;stroke-linejoin:round;stroke-miterlimit:10;" x1="124.251" y1="456.261" x2="119.257" y2="303.693"/>
			
				<line style="fill:#FFFFFF;stroke:#FFFFFF;stroke-linecap:round;stroke-linejoin:round;stroke-miterlimit:10;" x1="121.477" y1="392.46" x2="95.401" y2="368.049"/>
			
				<line style="fill:#FFFFFF;stroke:#FFFFFF;stroke-linecap:round;stroke-linejoin:round;stroke-miterlimit:10;" x1="109.271" y1="381.364" x2="103.723" y2="365.83"/>
			
				<line style="fill:#FFFFFF;stroke:#FFFFFF;stroke-linecap:round;stroke-linejoin:round;stroke-miterlimit:10;" x1="143.114" y1="411.323" x2="123.141" y2="432.96"/>
			
				<line style="fill:#FFFFFF;stroke:#FFFFFF;stroke-linecap:round;stroke-linejoin:round;stroke-miterlimit:10;" x1="89.853" y1="423.528" x2="123.141" y2="440.727"/>
			
				<line style="fill:#FFFFFF;stroke:#FFFFFF;stroke-linecap:round;stroke-linejoin:round;stroke-miterlimit:10;" x1="107.607" y1="433.515" x2="95.401" y2="432.96"/>
		</g>
		<g>
			
				<line style="fill:#92E3A9;stroke:#92E3A9;stroke-linecap:round;stroke-linejoin:round;stroke-miterlimit:10;" x1="124.251" y1="456.261" x2="119.257" y2="303.693"/>
			
				<line style="fill:#92E3A9;stroke:#92E3A9;stroke-linecap:round;stroke-linejoin:round;stroke-miterlimit:10;" x1="121.477" y1="392.46" x2="95.401" y2="368.049"/>
			
				<line style="fill:#92E3A9;stroke:#92E3A9;stroke-linecap:round;stroke-linejoin:round;stroke-miterlimit:10;" x1="109.271" y1="381.364" x2="103.723" y2="365.83"/>
			
				<line style="fill:#92E3A9;stroke:#92E3A9;stroke-linecap:round;stroke-linejoin:round;stroke-miterlimit:10;" x1="143.114" y1="411.323" x2="123.141" y2="432.96"/>
			
				<line style="fill:#92E3A9;stroke:#92E3A9;stroke-linecap:round;stroke-linejoin:round;stroke-miterlimit:10;" x1="89.853" y1="423.528" x2="123.141" y2="440.727"/>
			
				<line style="fill:#92E3A9;stroke:#92E3A9;stroke-linecap:round;stroke-linejoin:round;stroke-miterlimit:10;" x1="107.607" y1="433.515" x2="95.401" y2="432.96"/>
		</g>
		<g style="opacity:0.8;">
			
				<line style="fill:#FFFFFF;stroke:#FFFFFF;stroke-linecap:round;stroke-linejoin:round;stroke-miterlimit:10;" x1="124.251" y1="456.261" x2="119.257" y2="303.693"/>
			
				<line style="fill:#FFFFFF;stroke:#FFFFFF;stroke-linecap:round;stroke-linejoin:round;stroke-miterlimit:10;" x1="121.477" y1="392.46" x2="95.401" y2="368.049"/>
			
				<line style="fill:#FFFFFF;stroke:#FFFFFF;stroke-linecap:round;stroke-linejoin:round;stroke-miterlimit:10;" x1="109.271" y1="381.364" x2="103.723" y2="365.83"/>
			
				<line style="fill:#FFFFFF;stroke:#FFFFFF;stroke-linecap:round;stroke-linejoin:round;stroke-miterlimit:10;" x1="143.114" y1="411.323" x2="123.141" y2="432.96"/>
			
				<line style="fill:#FFFFFF;stroke:#FFFFFF;stroke-linecap:round;stroke-linejoin:round;stroke-miterlimit:10;" x1="89.853" y1="423.528" x2="123.141" y2="440.727"/>
			
				<line style="fill:#FFFFFF;stroke:#FFFFFF;stroke-linecap:round;stroke-linejoin:round;stroke-miterlimit:10;" x1="107.607" y1="433.515" x2="95.401" y2="432.96"/>
		</g>
	</g>
	<g>
		<g>
			<g>
				<path style="fill:#92E3A9;" d="M221.559,425.43c0,15.515-12.29,28.092-12.29,28.092s-12.29-12.577-12.29-28.092
					c0-15.515,12.29-28.092,12.29-28.092S221.559,409.915,221.559,425.43z"/>
				<path style="fill:#92E3A9;" d="M230.073,449.358c-5.969,6.73-16.139,7.458-16.139,7.458s-0.493-10.184,5.475-16.915
					c5.969-6.731,16.139-7.459,16.139-7.459S236.041,442.627,230.073,449.358z"/>
				<path style="fill:#92E3A9;" d="M198.757,439.666c6.266,6.454,6.233,16.651,6.233,16.651s-10.193-0.268-16.459-6.723
					c-6.266-6.454-6.233-16.651-6.233-16.651S192.49,433.211,198.757,439.666z"/>
			</g>
			<g style="opacity:0.5;">
				<g>
					<path style="fill:#FFFFFF;" d="M221.559,425.43c0,15.515-12.29,28.092-12.29,28.092s-12.29-12.577-12.29-28.092
						c0-15.515,12.29-28.092,12.29-28.092S221.559,409.915,221.559,425.43z"/>
					
						<line style="fill:#FFFFFF;stroke:#FFFFFF;stroke-linecap:round;stroke-linejoin:round;stroke-miterlimit:10;" x1="209.268" y1="453.522" x2="209.268" y2="397.338"/>
					
						<line style="fill:#FFFFFF;stroke:#FFFFFF;stroke-linecap:round;stroke-linejoin:round;stroke-miterlimit:10;" x1="209.268" y1="417.308" x2="216.149" y2="411.301"/>
					
						<line style="fill:#FFFFFF;stroke:#FFFFFF;stroke-linecap:round;stroke-linejoin:round;stroke-miterlimit:10;" x1="209.159" y1="426.592" x2="200.639" y2="414.25"/>
					
						<line style="fill:#FFFFFF;stroke:#FFFFFF;stroke-linecap:round;stroke-linejoin:round;stroke-miterlimit:10;" x1="209.268" y1="431.944" x2="219.426" y2="422.879"/>
					
						<line style="fill:#FFFFFF;stroke:#FFFFFF;stroke-linecap:round;stroke-linejoin:round;stroke-miterlimit:10;" x1="209.159" y1="439.154" x2="199.11" y2="430.197"/>
					
						<line style="fill:#FFFFFF;stroke:#FFFFFF;stroke-linecap:round;stroke-linejoin:round;stroke-miterlimit:10;" x1="209.159" y1="445.379" x2="217.023" y2="439.154"/>
				</g>
				<g>
					<path style="fill:#FFFFFF;" d="M230.073,449.358c-5.969,6.73-16.139,7.458-16.139,7.458s-0.493-10.184,5.475-16.915
						c5.969-6.731,16.139-7.459,16.139-7.459S236.041,442.627,230.073,449.358z"/>
					
						<line style="fill:#FFFFFF;stroke:#FFFFFF;stroke-linecap:round;stroke-linejoin:round;stroke-miterlimit:10;" x1="213.934" y1="456.816" x2="235.548" y2="432.443"/>
					
						<line style="fill:#FFFFFF;stroke:#FFFFFF;stroke-linecap:round;stroke-linejoin:round;stroke-miterlimit:10;" x1="227.865" y1="441.106" x2="233.162" y2="441.147"/>
					
						<line style="fill:#FFFFFF;stroke:#FFFFFF;stroke-linecap:round;stroke-linejoin:round;stroke-miterlimit:10;" x1="224.246" y1="445.092" x2="225.299" y2="436.46"/>
					
						<line style="fill:#FFFFFF;stroke:#FFFFFF;stroke-linecap:round;stroke-linejoin:round;stroke-miterlimit:10;" x1="222.235" y1="447.456" x2="230.129" y2="447.431"/>
					
						<line style="fill:#FFFFFF;stroke:#FFFFFF;stroke-linecap:round;stroke-linejoin:round;stroke-miterlimit:10;" x1="219.414" y1="450.541" x2="218.5" y2="442.79"/>
					
						<line style="fill:#FFFFFF;stroke:#FFFFFF;stroke-linecap:round;stroke-linejoin:round;stroke-miterlimit:10;" x1="217.019" y1="453.242" x2="222.826" y2="453.566"/>
				</g>
				<g>
					<path style="fill:#FFFFFF;" d="M198.757,439.666c6.266,6.454,6.233,16.651,6.233,16.651s-10.193-0.268-16.459-6.723
						c-6.266-6.454-6.233-16.651-6.233-16.651S192.49,433.211,198.757,439.666z"/>
					
						<line style="fill:#FFFFFF;stroke:#FFFFFF;stroke-linecap:round;stroke-linejoin:round;stroke-miterlimit:10;" x1="204.99" y1="456.316" x2="182.298" y2="432.943"/>
					
						<line style="fill:#FFFFFF;stroke:#FFFFFF;stroke-linecap:round;stroke-linejoin:round;stroke-miterlimit:10;" x1="190.363" y1="441.251" x2="190.8" y2="435.973"/>
					
						<line style="fill:#FFFFFF;stroke:#FFFFFF;stroke-linecap:round;stroke-linejoin:round;stroke-miterlimit:10;" x1="194.068" y1="445.157" x2="185.539" y2="443.464"/>
					
						<line style="fill:#FFFFFF;stroke:#FFFFFF;stroke-linecap:round;stroke-linejoin:round;stroke-miterlimit:10;" x1="196.275" y1="447.34" x2="196.839" y2="439.466"/>
					
						<line style="fill:#FFFFFF;stroke:#FFFFFF;stroke-linecap:round;stroke-linejoin:round;stroke-miterlimit:10;" x1="199.141" y1="450.383" x2="191.343" y2="450.716"/>
					
						<line style="fill:#FFFFFF;stroke:#FFFFFF;stroke-linecap:round;stroke-linejoin:round;stroke-miterlimit:10;" x1="201.656" y1="452.973" x2="202.413" y2="447.207"/>
				</g>
			</g>
		</g>
		<g>
			<g>
				
					<line style="fill:#92E3A9;stroke:#92E3A9;stroke-linecap:round;stroke-linejoin:round;stroke-miterlimit:10;" x1="209.268" y1="453.522" x2="209.268" y2="397.338"/>
				
					<line style="fill:#92E3A9;stroke:#92E3A9;stroke-linecap:round;stroke-linejoin:round;stroke-miterlimit:10;" x1="209.268" y1="417.308" x2="216.149" y2="411.301"/>
				
					<line style="fill:#92E3A9;stroke:#92E3A9;stroke-linecap:round;stroke-linejoin:round;stroke-miterlimit:10;" x1="209.159" y1="426.592" x2="200.639" y2="414.25"/>
				
					<line style="fill:#92E3A9;stroke:#92E3A9;stroke-linecap:round;stroke-linejoin:round;stroke-miterlimit:10;" x1="209.268" y1="431.944" x2="219.426" y2="422.879"/>
				
					<line style="fill:#92E3A9;stroke:#92E3A9;stroke-linecap:round;stroke-linejoin:round;stroke-miterlimit:10;" x1="209.159" y1="439.154" x2="199.11" y2="430.197"/>
				
					<line style="fill:#92E3A9;stroke:#92E3A9;stroke-linecap:round;stroke-linejoin:round;stroke-miterlimit:10;" x1="209.159" y1="445.379" x2="217.023" y2="439.154"/>
			</g>
			<g style="opacity:0.7;">
				
					<line style="fill:#FFFFFF;stroke:#FFFFFF;stroke-linecap:round;stroke-linejoin:round;stroke-miterlimit:10;" x1="209.268" y1="453.522" x2="209.268" y2="397.338"/>
				
					<line style="fill:#FFFFFF;stroke:#FFFFFF;stroke-linecap:round;stroke-linejoin:round;stroke-miterlimit:10;" x1="209.268" y1="417.308" x2="216.149" y2="411.301"/>
				
					<line style="fill:#FFFFFF;stroke:#FFFFFF;stroke-linecap:round;stroke-linejoin:round;stroke-miterlimit:10;" x1="209.159" y1="426.592" x2="200.639" y2="414.25"/>
				
					<line style="fill:#FFFFFF;stroke:#FFFFFF;stroke-linecap:round;stroke-linejoin:round;stroke-miterlimit:10;" x1="209.268" y1="431.944" x2="219.426" y2="422.879"/>
				
					<line style="fill:#FFFFFF;stroke:#FFFFFF;stroke-linecap:round;stroke-linejoin:round;stroke-miterlimit:10;" x1="209.159" y1="439.154" x2="199.11" y2="430.197"/>
				
					<line style="fill:#FFFFFF;stroke:#FFFFFF;stroke-linecap:round;stroke-linejoin:round;stroke-miterlimit:10;" x1="209.159" y1="445.379" x2="217.023" y2="439.154"/>
			</g>
		</g>
		<g>
			<g>
				
					<line style="fill:#92E3A9;stroke:#92E3A9;stroke-linecap:round;stroke-linejoin:round;stroke-miterlimit:10;" x1="213.934" y1="456.816" x2="235.548" y2="432.443"/>
				
					<line style="fill:#92E3A9;stroke:#92E3A9;stroke-linecap:round;stroke-linejoin:round;stroke-miterlimit:10;" x1="227.865" y1="441.106" x2="233.162" y2="441.147"/>
				
					<line style="fill:#92E3A9;stroke:#92E3A9;stroke-linecap:round;stroke-linejoin:round;stroke-miterlimit:10;" x1="224.246" y1="445.092" x2="225.299" y2="436.46"/>
				
					<line style="fill:#92E3A9;stroke:#92E3A9;stroke-linecap:round;stroke-linejoin:round;stroke-miterlimit:10;" x1="222.235" y1="447.456" x2="230.129" y2="447.431"/>
				
					<line style="fill:#92E3A9;stroke:#92E3A9;stroke-linecap:round;stroke-linejoin:round;stroke-miterlimit:10;" x1="219.414" y1="450.541" x2="218.5" y2="442.79"/>
				
					<line style="fill:#92E3A9;stroke:#92E3A9;stroke-linecap:round;stroke-linejoin:round;stroke-miterlimit:10;" x1="217.019" y1="453.242" x2="222.826" y2="453.566"/>
			</g>
			<g style="opacity:0.7;">
				
					<line style="fill:#FFFFFF;stroke:#FFFFFF;stroke-linecap:round;stroke-linejoin:round;stroke-miterlimit:10;" x1="213.934" y1="456.816" x2="235.548" y2="432.443"/>
				
					<line style="fill:#FFFFFF;stroke:#FFFFFF;stroke-linecap:round;stroke-linejoin:round;stroke-miterlimit:10;" x1="227.865" y1="441.106" x2="233.162" y2="441.147"/>
				
					<line style="fill:#FFFFFF;stroke:#FFFFFF;stroke-linecap:round;stroke-linejoin:round;stroke-miterlimit:10;" x1="224.246" y1="445.092" x2="225.299" y2="436.46"/>
				
					<line style="fill:#FFFFFF;stroke:#FFFFFF;stroke-linecap:round;stroke-linejoin:round;stroke-miterlimit:10;" x1="222.235" y1="447.456" x2="230.129" y2="447.431"/>
				
					<line style="fill:#FFFFFF;stroke:#FFFFFF;stroke-linecap:round;stroke-linejoin:round;stroke-miterlimit:10;" x1="219.414" y1="450.541" x2="218.5" y2="442.79"/>
				
					<line style="fill:#FFFFFF;stroke:#FFFFFF;stroke-linecap:round;stroke-linejoin:round;stroke-miterlimit:10;" x1="217.019" y1="453.242" x2="222.826" y2="453.566"/>
			</g>
		</g>
		<g>
			<g>
				
					<line style="fill:#92E3A9;stroke:#92E3A9;stroke-linecap:round;stroke-linejoin:round;stroke-miterlimit:10;" x1="204.99" y1="456.316" x2="182.298" y2="432.943"/>
				
					<line style="fill:#92E3A9;stroke:#92E3A9;stroke-linecap:round;stroke-linejoin:round;stroke-miterlimit:10;" x1="190.363" y1="441.251" x2="190.8" y2="435.973"/>
				
					<line style="fill:#92E3A9;stroke:#92E3A9;stroke-linecap:round;stroke-linejoin:round;stroke-miterlimit:10;" x1="194.068" y1="445.157" x2="185.539" y2="443.464"/>
				
					<line style="fill:#92E3A9;stroke:#92E3A9;stroke-linecap:round;stroke-linejoin:round;stroke-miterlimit:10;" x1="196.275" y1="447.34" x2="196.839" y2="439.466"/>
				
					<line style="fill:#92E3A9;stroke:#92E3A9;stroke-linecap:round;stroke-linejoin:round;stroke-miterlimit:10;" x1="199.141" y1="450.383" x2="191.343" y2="450.716"/>
				
					<line style="fill:#92E3A9;stroke:#92E3A9;stroke-linecap:round;stroke-linejoin:round;stroke-miterlimit:10;" x1="201.656" y1="452.973" x2="202.413" y2="447.207"/>
			</g>
			<g style="opacity:0.7;">
				
					<line style="fill:#FFFFFF;stroke:#FFFFFF;stroke-linecap:round;stroke-linejoin:round;stroke-miterlimit:10;" x1="204.99" y1="456.316" x2="182.298" y2="432.943"/>
				
					<line style="fill:#FFFFFF;stroke:#FFFFFF;stroke-linecap:round;stroke-linejoin:round;stroke-miterlimit:10;" x1="190.363" y1="441.251" x2="190.8" y2="435.973"/>
				
					<line style="fill:#FFFFFF;stroke:#FFFFFF;stroke-linecap:round;stroke-linejoin:round;stroke-miterlimit:10;" x1="194.068" y1="445.157" x2="185.539" y2="443.464"/>
				
					<line style="fill:#FFFFFF;stroke:#FFFFFF;stroke-linecap:round;stroke-linejoin:round;stroke-miterlimit:10;" x1="196.275" y1="447.34" x2="196.839" y2="439.466"/>
				
					<line style="fill:#FFFFFF;stroke:#FFFFFF;stroke-linecap:round;stroke-linejoin:round;stroke-miterlimit:10;" x1="199.141" y1="450.383" x2="191.343" y2="450.716"/>
				
					<line style="fill:#FFFFFF;stroke:#FFFFFF;stroke-linecap:round;stroke-linejoin:round;stroke-miterlimit:10;" x1="201.656" y1="452.973" x2="202.413" y2="447.207"/>
			</g>
		</g>
	</g>
</g>
<g id="Lines">
	<g>
		<g>
			<g>
				<g>
					<path style="fill:#92E3A9;" d="M498.381,159.623H228.048c-0.339,0-0.614-0.275-0.614-0.614c0-0.339,0.275-0.614,0.614-0.614
						h270.333c0.339,0,0.614,0.275,0.614,0.614C498.995,159.348,498.72,159.623,498.381,159.623z"/>
				</g>
				<g style="opacity:0.3;">
					<path style="fill:#FFFFFF;" d="M498.381,159.623H228.048c-0.339,0-0.614-0.275-0.614-0.614c0-0.339,0.275-0.614,0.614-0.614
						h270.333c0.339,0,0.614,0.275,0.614,0.614C498.995,159.348,498.72,159.623,498.381,159.623z"/>
				</g>
			</g>
			<g>
				<g>
					<path style="fill:#92E3A9;" d="M497.839,266.84H227.506c-0.34,0-0.614-0.275-0.614-0.614c0-0.339,0.275-0.614,0.614-0.614
						h270.333c0.34,0,0.614,0.275,0.614,0.614C498.453,266.565,498.179,266.84,497.839,266.84z"/>
				</g>
				<g style="opacity:0.3;">
					<path style="fill:#FFFFFF;" d="M497.839,266.84H227.506c-0.34,0-0.614-0.275-0.614-0.614c0-0.339,0.275-0.614,0.614-0.614
						h270.333c0.34,0,0.614,0.275,0.614,0.614C498.453,266.565,498.179,266.84,497.839,266.84z"/>
				</g>
			</g>
			<g>
				<g>
					<path style="fill:#92E3A9;" d="M497.839,354.486H227.506c-0.34,0-0.614-0.275-0.614-0.614c0-0.34,0.275-0.614,0.614-0.614
						h270.333c0.34,0,0.614,0.275,0.614,0.614C498.453,354.211,498.179,354.486,497.839,354.486z"/>
				</g>
				<g style="opacity:0.3;">
					<path style="fill:#FFFFFF;" d="M497.839,354.486H227.506c-0.34,0-0.614-0.275-0.614-0.614c0-0.34,0.275-0.614,0.614-0.614
						h270.333c0.34,0,0.614,0.275,0.614,0.614C498.453,354.211,498.179,354.486,497.839,354.486z"/>
				</g>
			</g>
		</g>
		<g style="opacity:0.4;">
			<path style="fill:none;stroke:#FFFFFF;stroke-width:1.2284;stroke-miterlimit:10;" d="M498.38,159.009"/>
			<path style="fill:none;stroke:#FFFFFF;stroke-width:1.2284;stroke-miterlimit:10;" d="M228.048,159.009"/>
		</g>
	</g>
</g>
<g id="Chart_4">
	<g>
		<g>
			
				<line style="fill:none;stroke:#263238;stroke-width:0.2652;stroke-miterlimit:10;" x1="284.977" y1="369.323" x2="284.977" y2="460.537"/>
			
				<line style="fill:none;stroke:#263238;stroke-width:0.2652;stroke-miterlimit:10;" x1="298.008" y1="369.323" x2="298.008" y2="460.537"/>
			
				<line style="fill:none;stroke:#263238;stroke-width:0.2652;stroke-miterlimit:10;" x1="311.038" y1="369.323" x2="311.038" y2="460.537"/>
			
				<line style="fill:none;stroke:#263238;stroke-width:0.2652;stroke-miterlimit:10;" x1="324.069" y1="369.323" x2="324.069" y2="460.537"/>
			
				<line style="fill:none;stroke:#263238;stroke-width:0.2652;stroke-miterlimit:10;" x1="337.099" y1="369.323" x2="337.099" y2="460.537"/>
			
				<line style="fill:none;stroke:#263238;stroke-width:0.2652;stroke-miterlimit:10;" x1="350.13" y1="369.323" x2="350.13" y2="460.537"/>
			
				<line style="fill:none;stroke:#263238;stroke-width:0.2652;stroke-miterlimit:10;" x1="363.16" y1="369.323" x2="363.16" y2="460.537"/>
			
				<line style="fill:none;stroke:#263238;stroke-width:0.2652;stroke-miterlimit:10;" x1="376.191" y1="369.323" x2="376.191" y2="460.537"/>
			
				<line style="fill:none;stroke:#263238;stroke-width:0.2652;stroke-miterlimit:10;" x1="389.221" y1="369.323" x2="389.221" y2="460.537"/>
			
				<line style="fill:none;stroke:#263238;stroke-width:0.2652;stroke-miterlimit:10;" x1="402.252" y1="369.323" x2="402.252" y2="460.537"/>
			
				<line style="fill:none;stroke:#263238;stroke-width:0.2652;stroke-miterlimit:10;" x1="415.282" y1="369.323" x2="415.282" y2="460.537"/>
			
				<line style="fill:none;stroke:#263238;stroke-width:0.2652;stroke-miterlimit:10;" x1="428.313" y1="369.323" x2="428.313" y2="460.537"/>
			
				<line style="fill:none;stroke:#263238;stroke-width:0.2652;stroke-miterlimit:10;" x1="285.629" y1="377.793" x2="427.661" y2="377.793"/>
			
				<line style="fill:none;stroke:#263238;stroke-width:0.2652;stroke-miterlimit:10;" x1="285.629" y1="390.172" x2="427.661" y2="390.172"/>
			
				<line style="fill:none;stroke:#263238;stroke-width:0.2652;stroke-miterlimit:10;" x1="285.629" y1="402.551" x2="427.661" y2="402.551"/>
			
				<line style="fill:none;stroke:#263238;stroke-width:0.2652;stroke-miterlimit:10;" x1="285.629" y1="414.93" x2="427.661" y2="414.93"/>
			
				<line style="fill:none;stroke:#263238;stroke-width:0.2652;stroke-miterlimit:10;" x1="285.629" y1="427.309" x2="427.661" y2="427.309"/>
			
				<line style="fill:none;stroke:#263238;stroke-width:0.2652;stroke-miterlimit:10;" x1="285.629" y1="439.688" x2="427.661" y2="439.688"/>
			
				<line style="fill:none;stroke:#263238;stroke-width:0.2652;stroke-miterlimit:10;" x1="285.629" y1="452.067" x2="427.661" y2="452.067"/>
		</g>
		<g>
			<path style="fill:#92E3A9;stroke:#263238;stroke-width:1.0607;stroke-miterlimit:10;" d="M315.475,401.317l-19.062,58.768h39.914
				l-19.062-58.768C316.983,400.45,315.756,400.45,315.475,401.317z"/>
			<path style="fill:#263238;stroke:#263238;stroke-width:1.0607;stroke-miterlimit:10;" d="M351.809,381.861l-25.373,78.224h52.536
				l-25.373-78.224C353.317,380.994,352.09,380.994,351.809,381.861z"/>
			<path style="fill:#92E3A9;stroke:#263238;stroke-width:1.0607;stroke-miterlimit:10;" d="M385.245,414.76l-14.702,45.325h31.194
				l-14.702-45.325C386.754,413.892,385.527,413.892,385.245,414.76z"/>
			<path style="fill:#263238;stroke:#263238;stroke-width:1.0607;stroke-miterlimit:10;" d="M405.401,430.325l-9.653,29.76h21.096
				l-9.653-29.76C406.909,429.457,405.682,429.457,405.401,430.325z"/>
		</g>
	</g>
</g>
<g id="Chart_3">
	<g>
		<g>
			<g>
				<path style="fill:#263238;stroke:#263238;stroke-width:1.0607;stroke-miterlimit:10;" d="M283.264,340.486
					c-15.94,0-28.908-12.967-28.908-28.908c0-15.94,12.968-28.908,28.908-28.908c15.94,0,28.908,12.967,28.908,28.908
					C312.172,327.518,299.204,340.486,283.264,340.486z M283.264,291.156c-11.261,0-20.422,9.162-20.422,20.422
					c0,11.26,9.161,20.422,20.422,20.422c11.261,0,20.423-9.162,20.423-20.422C303.687,300.317,294.525,291.156,283.264,291.156z"/>
			</g>
			<g>
				<path style="fill:#92E3A9;stroke:#263238;stroke-width:1.0607;stroke-miterlimit:10;" d="M283.264,340.486
					c-7.954,0-15.366-3.162-20.871-8.905l6.126-5.873c3.889,4.058,9.126,6.293,14.745,6.293c11.261,0,20.423-9.162,20.423-20.422
					c0-11.26-9.162-20.422-20.423-20.422v-8.486c15.94,0,28.908,12.967,28.908,28.908
					C312.172,327.518,299.204,340.486,283.264,340.486z"/>
			</g>
		</g>
		<g>
			<g>
				<path style="fill:#263238;stroke:#263238;stroke-width:1.0607;stroke-miterlimit:10;" d="M354.557,340.486
					c-15.94,0-28.908-12.967-28.908-28.908c0-15.94,12.968-28.908,28.908-28.908s28.908,12.967,28.908,28.908
					C383.465,327.518,370.497,340.486,354.557,340.486z M354.557,291.156c-11.261,0-20.423,9.162-20.423,20.422
					c0,11.26,9.162,20.422,20.423,20.422c11.26,0,20.422-9.162,20.422-20.422C374.979,300.317,365.818,291.156,354.557,291.156z"/>
			</g>
			<g>
				<path style="fill:#92E3A9;stroke:#263238;stroke-width:1.0607;stroke-miterlimit:10;" d="M365.811,338.212l-3.306-7.814
					c7.578-3.206,12.474-10.593,12.474-18.82c0-11.26-9.162-20.422-20.422-20.422v-8.486c15.94,0,28.908,12.967,28.908,28.908
					C383.465,323.222,376.535,333.676,365.811,338.212z"/>
			</g>
		</g>
		<g>
			<g>
				<path style="fill:#263238;stroke:#263238;stroke-width:1.0607;stroke-miterlimit:10;" d="M425.85,340.486
					c-15.94,0-28.908-12.967-28.908-28.908c0-15.94,12.967-28.908,28.908-28.908c15.94,0,28.909,12.967,28.909,28.908
					C454.758,327.518,441.79,340.486,425.85,340.486z M425.85,291.156c-11.26,0-20.422,9.162-20.422,20.422
					c0,11.26,9.162,20.422,20.422,20.422c11.261,0,20.423-9.162,20.423-20.422C446.273,300.317,437.111,291.156,425.85,291.156z"/>
			</g>
			<g>
				<path style="fill:#92E3A9;stroke:#263238;stroke-width:1.0607;stroke-miterlimit:10;" d="M445.867,307.506
					c-1.915-9.475-10.333-16.35-20.017-16.35v-8.486c13.706,0,25.623,9.738,28.335,23.154L445.867,307.506z"/>
			</g>
		</g>
	</g>
</g>
<g id="Chart_2">
	<g>
		<g>
			
				<line style="fill:none;stroke:#263238;stroke-width:1.0607;stroke-miterlimit:10;" x1="294.789" y1="250.663" x2="430.556" y2="250.663"/>
			<g>
				<g>
					
						<line style="fill:none;stroke:#263238;stroke-width:1.0607;stroke-miterlimit:10;" x1="294.789" y1="250.663" x2="294.789" y2="247.769"/>
					
						<line style="fill:none;stroke:#263238;stroke-width:1.0607;stroke-miterlimit:10;" x1="321.943" y1="250.663" x2="321.943" y2="247.769"/>
					
						<line style="fill:none;stroke:#263238;stroke-width:1.0607;stroke-miterlimit:10;" x1="349.096" y1="250.663" x2="349.096" y2="247.769"/>
					
						<line style="fill:none;stroke:#263238;stroke-width:1.0607;stroke-miterlimit:10;" x1="376.249" y1="250.663" x2="376.249" y2="247.769"/>
					
						<line style="fill:none;stroke:#263238;stroke-width:1.0607;stroke-miterlimit:10;" x1="403.403" y1="250.663" x2="403.403" y2="247.769"/>
					
						<line style="fill:none;stroke:#263238;stroke-width:1.0607;stroke-miterlimit:10;" x1="430.556" y1="250.663" x2="430.556" y2="247.769"/>
				</g>
			</g>
		</g>
		<g>
			<g>
				
					<rect x="298.591" y="212.075" style="fill:#92E3A9;stroke:#263238;stroke-width:1.0607;stroke-miterlimit:10;" width="19.55" height="23.153"/>
				
					<rect x="325.744" y="185.062" style="fill:#92E3A9;stroke:#263238;stroke-width:1.0607;stroke-miterlimit:10;" width="19.55" height="54.024"/>
				
					<rect x="352.897" y="147.245" style="fill:#92E3A9;stroke:#263238;stroke-width:1.0607;stroke-miterlimit:10;" width="19.551" height="60.199"/>
				
					<rect x="380.051" y="203.585" style="fill:#92E3A9;stroke:#263238;stroke-width:1.0607;stroke-miterlimit:10;" width="19.551" height="11.576"/>
				
					<rect x="407.204" y="196.639" style="fill:#92E3A9;stroke:#263238;stroke-width:1.0607;stroke-miterlimit:10;" width="19.55" height="30.099"/>
			</g>
			<g>
				<g>
					
						<rect x="298.591" y="235.228" style="fill:#263238;stroke:#263238;stroke-width:1.0607;stroke-miterlimit:10;" width="19.55" height="15.436"/>
					
						<rect x="325.744" y="239.087" style="fill:#263238;stroke:#263238;stroke-width:1.0607;stroke-miterlimit:10;" width="19.55" height="11.577"/>
					
						<rect x="352.897" y="207.444" style="fill:#263238;stroke:#263238;stroke-width:1.0607;stroke-miterlimit:10;" width="19.551" height="43.219"/>
					
						<rect x="380.051" y="215.162" style="fill:#263238;stroke:#263238;stroke-width:1.0607;stroke-miterlimit:10;" width="19.551" height="35.502"/>
					
						<rect x="407.204" y="226.738" style="fill:#263238;stroke:#263238;stroke-width:1.0607;stroke-miterlimit:10;" width="19.55" height="23.925"/>
				</g>
			</g>
		</g>
	</g>
</g>
<g id="Chart_1">
	<g>
		<g>
			<path style="fill:#263238;" d="M466.736,136.321c-0.459,0-0.911-0.219-1.19-0.626l-42.057-61.344l-42.671,45.501l-43.57-28.405
				l-42.148,9.781l-42.813,34.771c-0.618,0.502-1.526,0.408-2.028-0.21c-0.502-0.618-0.408-1.525,0.21-2.027l43.329-35.19
				l43.995-10.209l42.574,27.756l43.471-46.354l44.085,64.302c0.45,0.656,0.283,1.554-0.374,2.004
				C467.301,136.239,467.017,136.321,466.736,136.321z"/>
		</g>
		<g>
			<g>
				<path style="fill:#92E3A9;" d="M254.947,134.879c0,1.971-1.598,3.57-3.57,3.57c-1.971,0-3.569-1.598-3.569-3.57
					c0-1.971,1.598-3.569,3.569-3.569C253.349,131.31,254.947,132.908,254.947,134.879z"/>
				<path style="fill:#92E3A9;" d="M298.018,99.899c0,1.972-1.598,3.57-3.57,3.57c-1.971,0-3.569-1.598-3.569-3.57
					c0-1.971,1.598-3.569,3.569-3.569C296.42,96.329,298.018,97.927,298.018,99.899z"/>
				<path style="fill:#92E3A9;" d="M341.09,89.904c0,1.971-1.598,3.57-3.57,3.57c-1.971,0-3.569-1.598-3.569-3.57
					c0-1.971,1.598-3.569,3.569-3.569C339.492,86.335,341.09,87.933,341.09,89.904z"/>
				<path style="fill:#92E3A9;" d="M384.161,117.984c0,1.971-1.598,3.569-3.57,3.569c-1.971,0-3.569-1.598-3.569-3.569
					c0-1.971,1.598-3.569,3.569-3.569C382.563,114.415,384.161,116.013,384.161,117.984z"/>
				<path style="fill:#92E3A9;" d="M427.233,72.057c0,1.971-1.598,3.57-3.569,3.57s-3.569-1.598-3.569-3.57
					c0-1.971,1.598-3.569,3.569-3.569S427.233,70.086,427.233,72.057z"/>
				<path style="fill:#92E3A9;" d="M470.304,134.879c0,1.971-1.598,3.57-3.569,3.57s-3.569-1.598-3.569-3.57
					c0-1.971,1.598-3.569,3.569-3.569S470.304,132.908,470.304,134.879z"/>
			</g>
		</g>
	</g>
</g>
<g id="Shadows">
	<g>
		<ellipse style="fill:#92E3A9;" cx="543.722" cy="465.871" rx="69.017" ry="9.27"/>
		<ellipse style="opacity:0.7;fill:#FFFFFF;" cx="543.722" cy="465.871" rx="69.017" ry="9.27"/>
	</g>
	<g>
		<ellipse style="fill:#92E3A9;" cx="165.576" cy="465.871" rx="63.685" ry="9.27"/>
		<ellipse style="opacity:0.7;fill:#FFFFFF;" cx="165.576" cy="465.871" rx="63.685" ry="9.27"/>
	</g>
</g>
<g id="Character_2">
	<g>
		<g>
			<path style="fill:#FFFFFF;" d="M524.239,139.304c0,0,26.217-2.543,27.717,1.826c1.5,4.37,0.978,14.348,0.978,14.348
				s3.456,0.978,3.848,1.369c0.342,0.342,4.23,2.882,0.609,7.05c-0.93,1.071-2.101,1.9-3.374,2.528
				c-1.571,0.775-4.034,2.042-4.523,2.601c-1.027,1.174-5.234,5.951-5.234,5.951l1.043,7.696c0,0,2.348,1.696,5.217,7.63
				c0,0,6.783,3.978,10.761,6.261c3.978,2.283,10.174,4.37,10.174,4.37s1.826,0.587,1.696,1.891
				c-0.13,1.304-9.065,31.044-9.065,31.044l-4.696,15c0,0-0.065,2.348-0.717,5.478c-0.673,3.23-3.196,5.348-5.804,4.696L553.13,270
				c0,0-12.261,6.13-32.478,5.087c0,0-9.522-0.913-16.565-6.13l-0.131-25.696L471.478,237c0,0-4.108-0.867-1.957-4.565
				c2.201-3.783,9.196-12.88,9.196-12.88l22.794-27.88c0,0,1.565-1.859,2.152-2.446c0.587-0.587,1.957-0.978,7.63-1.467
				c5.674-0.489,11.935-1.565,11.935-1.565s3.424-2.935,3.913-2.935c0.489,0,0.587-4.402,0.587-4.402s-5.576-3.62-6.065-10.761
				c-0.489-7.141,2.641-23.869,2.641-23.869L524.239,139.304z"/>
			<g>
				<path style="fill:#263238;" d="M504.446,268.875c0,0-2.756,41.026-2.756,60.621c0,19.594,1.225,35.515,1.837,49.292
					c0.612,13.777-1.837,23.269,0.306,33.372c2.143,10.103,7.042,39.495,7.042,39.495l5.776,3.488c0,0,0.96-23.388,3.103-31.655
					c2.143-8.267,2.755-43.169,3.98-53.885c1.224-10.716,5.205-48.68,5.205-48.68s15.308,39.801,18.982,55.416
					c3.674,15.614,16.227,50.823,18.982,59.396c2.755,8.573,7.078,21.261,7.078,21.261s1.837,0.612,3.98,0.306
					c2.143-0.306,2.755-1.837,2.755-1.837s-4.067-25.641-5.854-38.1c-2.21-15.415-5.817-38.577-7.96-47.149
					c-2.143-8.573-5.511-22.044-5.511-28.473c0-6.43-8.266-71.03-8.266-71.03S524.346,283.265,504.446,268.875z"/>
				
					<line style="fill:none;stroke:#FFFFFF;stroke-width:0.5303;stroke-linecap:round;stroke-miterlimit:10;" x1="528.939" y1="320.923" x2="516.658" y2="306.604"/>
				
					<line style="fill:none;stroke:#FFFFFF;stroke-width:0.5303;stroke-linecap:round;stroke-miterlimit:10;" x1="513.522" y1="307.65" x2="523.628" y2="317.058"/>
				<path style="fill:none;stroke:#FFFFFF;stroke-width:0.5303;stroke-linecap:round;stroke-miterlimit:10;" d="M535.127,308.695
					c0,0,3.485-10.105,13.59-15.332"/>
				<path style="fill:none;stroke:#FFFFFF;stroke-width:0.5303;stroke-linecap:round;stroke-miterlimit:10;" d="M549.414,274.198
					c0,0-1.394,5.227,0.348,8.363c1.742,3.136,3.484,3.136,3.484,3.136s3.136,17.074,3.136,26.831c0,9.757-2.091,10.802,0,21.604
					c2.091,10.802,3.485,14.287,3.485,20.559c0,6.272,2.788,10.454,5.227,14.287c2.439,3.833,3.136,14.984,3.136,19.514
					c0,4.53,1.394,9.409,2.788,13.938c0,0,0.336,10.155,2.091,12.545c1.755,2.39,2.091,10.454,2.091,10.454"/>
				<path style="fill:none;stroke:#FFFFFF;stroke-width:0.5303;stroke-linecap:round;stroke-miterlimit:10;" d="M526.415,319.497
					c0,0,0.697,8.014-1.742,21.953c-2.439,13.938-4.182,17.771-4.53,33.801c-0.348,16.029,1.046,18.817,0.349,27.18
					c-0.697,8.363-4.878,21.604-4.878,27.528c0,5.924,0.642,25.184,0.642,25.184"/>
				<polyline style="fill:none;stroke:#FFFFFF;stroke-width:0.5303;stroke-linecap:round;stroke-miterlimit:10;" points="
					518.749,276.289 519.446,279.076 523.976,280.122 523.279,276.637 				"/>
				<path style="fill:none;stroke:#FFFFFF;stroke-width:0.5303;stroke-linecap:round;stroke-miterlimit:10;" d="M523.976,280.122
					c0,0,8.363-0.348,12.545-1.742l-1.045-2.788"/>
				<path style="fill:none;stroke:#FFFFFF;stroke-width:0.5303;stroke-linecap:round;stroke-miterlimit:10;" d="M539.308,274.895
					l1.045,3.485c0,0,6.621-0.349,7.666-1.394"/>
				<path style="fill:none;stroke:#FFFFFF;stroke-width:0.5303;stroke-linecap:round;stroke-miterlimit:10;" d="M519.446,279.076
					c0,0-3.485,0-6.621-1.742c-3.136-1.742-3.136-1.742-3.136-1.742l1.045-2.439"/>
			</g>
			<g>
				<path style="fill:#FFFFFF;stroke:#263238;stroke-width:1.0607;stroke-linecap:round;stroke-miterlimit:10;" d="M510.875,451.655
					c0,0-15.002,9.797-17.145,14.39c-2.143,4.592,6.43,2.756,12.553,0.306c6.123-2.449,9.972-11.208,9.972-11.208L510.875,451.655z"
					/>
				<path style="fill:#FFFFFF;stroke:#263238;stroke-width:1.0607;stroke-linecap:round;stroke-miterlimit:10;" d="M574.476,457.13
					c0,0,1.11,6.765,4.409,11.896c3.299,5.132,9.53,9.53,9.53,1.466c0-8.064-7.697-15.028-7.697-15.028
					S576.904,457.562,574.476,457.13z"/>
			</g>
			<g>
				<g>
					<g>
						<defs>
							<path id="XMLID_2_" d="M524.149,144.842c0,0-3.251,20.179-2.143,25.105c2.518,11.196,11.328,10.716,16.839,8.573
								c5.144-2,10.287-9.068,10.95-10.001c0.048-0.067,0.106-0.111,0.186-0.134c0.824-0.24,5.905-1.853,8.152-5.785
								c2.449-4.286-2.143-6.123-2.143-6.123"/>
						</defs>
						<use xlink:href="#XMLID_2_"  style="overflow:visible;fill:#FFFFFF;"/>
						<clipPath id="XMLID_00000130633372050297212360000007518679409492938426_">
							<use xlink:href="#XMLID_2_"  style="overflow:visible;"/>
						</clipPath>
						<path style="opacity:0.5;clip-path:url(#XMLID_00000130633372050297212360000007518679409492938426_);fill:#92E3A9;" d="
							M545.015,173.758l4.851-5.341c0,0,5.755-1.764,8.266-5.817c1.471-2.374,0.654-4.436-0.228-5.024s-3.777-1.75-3.777-1.75
							l-1.631,3.592l-1.382,0.243c0,0,0.574-3.703-1.103-5.893c-1.677-2.19-2.058-8.525-2.058-8.525s-2.352,12.641-2.646,17.932
							c-0.294,5.291-2.646,8.231-2.646,8.231s0.294,3.234,0.882,6.467c0.068,0.373,0.135,0.948,0.202,1.661l0.806-1.283l0.435,1.22
							C544.482,177.392,544.25,175.16,545.015,173.758z"/>
						
							<use xlink:href="#XMLID_2_"  style="overflow:visible;fill:none;stroke:#263238;stroke-width:1.0607;stroke-linecap:round;stroke-miterlimit:10;"/>
					</g>
					<g>
						<path style="fill:#263238;" d="M536.588,155.095c-0.191,0.794-0.023,1.514,0.373,1.609c0.397,0.095,0.873-0.471,1.063-1.264
							c0.191-0.793,0.023-1.514-0.373-1.609C537.255,153.735,536.779,154.301,536.588,155.095z"/>
						<path style="fill:#263238;" d="M527.987,152.993c-0.19,0.794-0.023,1.514,0.374,1.609c0.397,0.095,0.873-0.471,1.063-1.264
							c0.19-0.793,0.023-1.514-0.373-1.609C528.654,151.634,528.178,152.2,527.987,152.993z"/>
						<path style="fill:none;stroke:#263238;stroke-width:1.0607;stroke-linecap:round;stroke-miterlimit:10;" d="M541.919,151.589
							c0,0-1.286-2.636-4.654-2.886"/>
						<path style="fill:none;stroke:#263238;stroke-width:1.0607;stroke-linecap:round;stroke-miterlimit:10;" d="M530.693,148.849
							c0,0-2.448-1.24-4.725,0.919"/>
						<path style="fill:none;stroke:#263238;stroke-width:1.0607;stroke-linecap:round;stroke-miterlimit:10;" d="M531.269,152.49
							c0,0,0.038,2.331-0.297,3.999c-0.336,1.668-1.63,1.995-1.303,3.29c0.327,1.294,2.011,1.419,2.011,1.419"/>
						<path style="fill:none;stroke:#263238;stroke-width:1.0607;stroke-linecap:round;stroke-miterlimit:10;" d="M533.409,166.407
							c0,0,2.479,0.819,4.272-0.529"/>
					</g>
				</g>
				<g>
					<path style="fill:#263238;" d="M549.254,130.759c0,0-6.736-5.817-13.165-5.817s-11.634,3.674-15.614,3.98
						c-3.98,0.306-6.736-3.368-9.185,1.531c-2.449,4.899,6.736,13.165,12.859,14.39c6.123,1.225,14.696-0.612,17.145-0.918
						c2.449-0.306,7.042,0,7.042,0s-1.837,5.817,0,7.654c1.837,1.837,2.143,3.062,2.143,4.286c0,1.225,0.612,3.98,0.612,3.98
						l1.837,0.612l0.919-3.368c0,0,3.98-3.98,4.899-9.491c0.918-5.511-3.674-11.022-3.674-11.022L549.254,130.759z"/>
					<path style="fill:none;stroke:#FFFFFF;stroke-width:0.5303;stroke-linecap:round;stroke-miterlimit:10;" d="M523.472,142.352
						c0,0,10.466,1.98,18.668-1.414c8.203-3.394,1.131-10.183,1.131-10.183"/>
					<path style="fill:none;stroke:#FFFFFF;stroke-width:0.5303;stroke-linecap:round;stroke-miterlimit:10;" d="M544.969,130.189
						c0.849,0,7.92,5.374,6.506,9.334c-1.414,3.96-4.243,4.243-4.243,4.243"/>
				</g>
			</g>
			<g>
				<g>
					<path style="fill:#92E3A9;" d="M543.839,251.658l-8.819-4.703c0,0-4.703-0.294-6.761-0.882
						c-2.058-0.588-23.201-2.609-23.201-2.609l-0.316,4.961c0,0,24.105,3.234,29.103,3.821c4.997,0.588,9.407,2.94,10.289,4.409
						c0.882,1.47,2.646,2.94,1.764,7.055c-0.882,4.116-6.761,9.995-6.761,9.995c-0.279-0.416,14.146-1.45,13.99-2.993
						c-0.308-3.058-1.938-11.999-1.938-11.999L543.839,251.658z"/>
					<path style="opacity:0.5;fill:#FFFFFF;" d="M543.839,251.658l-8.819-4.703c0,0-4.703-0.294-6.761-0.882
						c-2.058-0.588-23.201-2.609-23.201-2.609l-0.316,4.961c0,0,24.105,3.234,29.103,3.821c4.997,0.588,9.407,2.94,10.289,4.409
						c0.882,1.47,2.646,2.94,1.764,7.055c-0.882,4.116-6.761,9.995-6.761,9.995c-0.224-0.441,14.174-1.466,13.99-2.993
						c-0.468-3.904-1.938-11.999-1.938-11.999L543.839,251.658z"/>
				</g>
				<g>
					<path style="fill:#92E3A9;" d="M573.027,202.744c-0.779-3.667-6.599-3.176-10.103-5.205
						c-3.504-2.028-12.029-6.732-12.029-6.732l-4.115-6.173c0,0-1.13-2.451-1.791-5.163l-0.435-1.22l-0.806,1.283
						c0.513,5.475,0.974,19.504,0.974,19.504l1.764,8.819c0,0,6.761,29.102,8.525,35.57c1.764,6.467,1.764,10.877,0.588,12.935
						c-1.176,2.058-0.782,2.962-0.782,2.962s4.596-3.549,4.309-7.077C558.792,248.147,573.552,205.218,573.027,202.744z"/>
					<path style="opacity:0.5;fill:#FFFFFF;" d="M573.027,202.744c-0.399-3.728-6.599-3.176-10.103-5.205
						c-3.504-2.028-12.029-6.732-12.029-6.732l-4.115-6.173c0,0-1.13-2.451-1.791-5.163l-0.435-1.22l-0.806,1.283
						c0.513,5.475,0.974,19.504,0.974,19.504l1.764,8.819c0,0,6.761,29.102,8.525,35.57c1.764,6.467,1.764,10.877,0.588,12.935
						c-1.176,2.058-0.782,2.962-0.782,2.962s4.72-3.561,4.309-7.077C558.69,248.524,573.356,205.828,573.027,202.744z"/>
				</g>
				<path style="fill:#FFFFFF;stroke:#263238;stroke-width:1.0607;stroke-linecap:round;stroke-miterlimit:10;" d="M547.309,199.07
					c0,0-1.837-16.533-2.756-20.819c-0.918-4.286-0.306-6.736-4.286-6.736c-3.98,0-8.879-0.612-7.96,1.531
					c0.919,2.143,7.042,0.306,7.96,1.225c0.918,0.919,0.306,3.062,0.306,3.062s-7.96,0.612-7.96,2.755
					c0,2.143,0.306,7.96,1.837,8.573c1.531,0.612,2.143-2.756,2.143-2.756s0.306,7.042,1.837,9.491
					c1.531,2.45,3.368,4.286,3.368,4.286L547.309,199.07z"/>
				<path style="fill:none;stroke:#263238;stroke-width:1.0607;stroke-linecap:round;stroke-miterlimit:10;" d="M541.798,203.663
					c0,0-0.919,37.964,0.612,44.088c1.531,6.123,9.797,14.39,14.083,10.409c4.286-3.98,2.143-12.553,2.143-16.533
					c0-3.98-9.797-33.372-9.797-35.515c0-2.143-1.225-5.205-1.225-5.205"/>
				
					<line style="fill:none;stroke:#263238;stroke-width:1.0607;stroke-linecap:round;stroke-miterlimit:10;" x1="542.41" y1="208.255" x2="548.534" y2="207.643"/>
			</g>
			<g>
				<g>
					<path style="fill:#92E3A9;" d="M503.272,227.259l1.176-33.806c0,0-1.47-0.882-2.058,2.352
						c-0.588,3.234-0.882,9.701-0.882,9.701s-7.055-4.41-5.291-1.764c1.764,2.646,4.703,8.525,4.703,8.525l-10.877,10.877
						l4.997,2.058L503.272,227.259z"/>
					<path style="opacity:0.5;fill:#FFFFFF;" d="M503.272,227.259l1.176-33.806c0,0-1.47-0.882-2.058,2.352
						c-0.588,3.234-0.882,9.701-0.882,9.701s-7.055-4.41-5.291-1.764c1.764,2.646,4.703,8.525,4.703,8.525l-10.877,10.877
						l4.997,2.058L503.272,227.259z"/>
				</g>
				<g>
					<path style="fill:#92E3A9;" d="M517.91,200.975c0,0-0.559,1.977,1.792,1.977s6.474-1.671,6.474-1.671l-0.301-3.326
						C525.876,197.955,520.233,200.762,517.91,200.975z"/>
					<path style="opacity:0.5;fill:#FFFFFF;" d="M517.91,200.975c0,0-0.559,1.977,1.792,1.977s6.474-1.671,6.474-1.671l-0.301-3.326
						C525.876,197.955,520.233,200.762,517.91,200.975z"/>
				</g>
				<path style="fill:none;stroke:#263238;stroke-width:1.0607;stroke-linecap:round;stroke-miterlimit:10;" d="M528.022,178.636
					c0,0-3.063,17.985-1.226,21.965c1.837,3.98,4.592,3.062,6.736,1.224c2.143-1.837,4.899-6.429,4.899-6.429"/>
				<path style="fill:none;stroke:#263238;stroke-width:1.0607;stroke-linecap:round;stroke-miterlimit:10;" d="M503.834,243.77
					l0.612,25.105c0,0,7.042,6.736,20.513,6.736c13.471,0,28.167-4.899,28.167-4.899v-8.879"/>
				<path style="fill:none;stroke:#263238;stroke-width:1.0607;stroke-linecap:round;stroke-miterlimit:10;" d="M545.166,182.231
					c0,0,5.511,5.511,5.511,10.716c0,5.205-0.919,6.429-0.919,6.429"/>
				<path style="fill:none;stroke:#263238;stroke-width:1.0607;stroke-linecap:round;stroke-miterlimit:10;" d="M550.064,189.885
					c0,0,8.266,4.899,12.859,7.654c4.592,2.756,10.103,2.756,10.103,5.205c0,2.449-12.859,44.087-12.859,44.087"/>
				
					<line style="fill:none;stroke:#263238;stroke-width:1.0607;stroke-linecap:round;stroke-miterlimit:10;" x1="555.269" y1="203.663" x2="552.207" y2="215.909"/>
				
					<line style="fill:none;stroke:#263238;stroke-width:0.5303;stroke-linecap:round;stroke-miterlimit:10;" x1="503.907" y1="210.852" x2="498.965" y2="200.473"/>
				
					<line style="fill:none;stroke:#263238;stroke-width:0.5303;stroke-linecap:round;stroke-miterlimit:10;" x1="503.907" y1="213.817" x2="496.494" y2="209.369"/>
				
					<line style="fill:none;stroke:#263238;stroke-width:0.5303;stroke-linecap:round;stroke-miterlimit:10;" x1="528.123" y1="237.044" x2="526.641" y2="244.458"/>
				<path style="fill:none;stroke:#263238;stroke-width:0.5303;stroke-linecap:round;stroke-miterlimit:10;" d="M568.154,202.45
					c0,0-7.413,1.483-14.332,9.884"/>
				<path style="fill:none;stroke:#263238;stroke-width:0.5303;stroke-linecap:round;stroke-miterlimit:10;" d="M563.212,201.956
					c0,0-1.977-0.494-8.896,5.436"/>
				<polyline style="fill:none;stroke:#263238;stroke-width:0.5303;stroke-linecap:round;stroke-miterlimit:10;" points="
					528.123,204.427 525.158,227.654 527.629,228.149 529.606,220.736 				"/>
				<path style="fill:none;stroke:#263238;stroke-width:0.5303;stroke-linecap:round;stroke-miterlimit:10;" d="M530.1,265.214
					c-8.896,7.413-21.251,6.919-21.251,6.919"/>
				<path style="fill:none;stroke:#263238;stroke-width:0.5303;stroke-linecap:round;stroke-miterlimit:10;" d="M492.494,224.882
					c0,0-6.049-5.545-14.62,1.512"/>
				<path style="fill:none;stroke:#263238;stroke-width:1.0607;stroke-linecap:round;stroke-miterlimit:10;" d="M527.408,183.15
					c0,0-2.45,0.612-5.205,4.899c-2.755,4.286-6.123,11.634-3.674,12.246c2.449,0.612,7.042-2.143,7.042-2.143"/>
				
					<line style="fill:none;stroke:#263238;stroke-width:1.0607;stroke-linecap:round;stroke-miterlimit:10;" x1="536.899" y1="199.376" x2="539.961" y2="202.132"/>
				<path style="fill:none;stroke:#263238;stroke-width:1.0607;stroke-linecap:round;stroke-miterlimit:10;" d="M523.122,186.212
					c0,0-11.328,1.531-15.92,1.837c-4.593,0.306-3.699,2.009-5.205,3.062c-2.419,1.692-30.174,36.882-32.011,40.25
					c-1.837,3.368-1.531,4.899,1.531,5.817c3.062,0.919,33.542,6.287,33.542,6.287l26.942,2.755l2.143-6.736
					c0,0,6.254,0.822,7.354,0.822"/>
				<path style="fill:none;stroke:#263238;stroke-width:1.0607;stroke-linecap:round;stroke-miterlimit:10;" d="M531.082,237.035
					c0,0-8.879-2.449-17.145-7.042"/>
				<path style="fill:none;stroke:#263238;stroke-width:1.0607;stroke-linecap:round;stroke-miterlimit:10;" d="M511.488,229.38
					c0,0-8.969-3.337-13.868-3.95c-4.899-0.612-12.325-0.806-12.325-0.806"/>
				
					<line style="fill:none;stroke:#263238;stroke-width:1.0607;stroke-linecap:round;stroke-miterlimit:10;" x1="503.221" y1="225.4" x2="504.14" y2="201.214"/>
				<path style="fill:none;stroke:#263238;stroke-width:1.0607;stroke-linecap:round;stroke-miterlimit:10;" d="M532.001,246.219
					c0,0,4.365,2.15,6.564,2.517"/>
			</g>
		</g>
	</g>
</g>
<g id="Character_1">
	<g>
		<g>
			<g>
				<g>
					<path style="fill:#263238;" d="M131.333,226.734l3.61-19.717l22.846-8.966c0,0,1.114-6.127,2.228-6.405
						c1.114-0.279,2.228-2.785,2.228-2.785l-0.553-5.055c0,0,2.091-8.035,12.6-1.768c0,0-3.184,2.126-2.628,2.962
						c0.557,0.835-0.617,3.684,0.776,3.684c1.392,0,4.202,1.764,5.624,3.2c1.422,1.436,2.618,3.491,2.618,3.491l11.829,0.679
						c0,0,2.333,0.03,3.588,0.485c0.201-5.776-0.503-10.187-1.911-13.615c-5.084-12.379-14.369-16.8-15.695-22.99
						c-1.326-6.19-0.663-6.853-0.663-6.853s4.421-3.979,3.095-10.611c-1.326-6.632-6.411-11.274-24.758-12.158
						c-18.348-0.884-15.695,11.716-15.695,11.716l0.221,0.884c0,0-11.716,3.979-9.505,18.79c2.211,14.811,8.621,21.221,8.4,25.864
						c-0.221,4.642-7.074,6.411-16.8,17.021c-9.726,10.611-11.716,26.527-7.737,36.918c1.956,5.108,5.915,9.368,10.821,12.55
						L131.333,226.734z"/>
					<path style="fill:#263238;" d="M146.65,228.683v4.456l-8.469,26.176c5.565,1.365,11.278,1.553,16.189,0.335
						c3.018-0.749,5.868-2.038,8.56-3.649L146.65,228.683z"/>
				</g>
				<path style="fill:#FFFFFF;" d="M170.956,184.826l0.978,4.5c0,0,2.984-2.984,8.853,6.114c0,0,12.179-0.294,15.506,1.37
					c0,0,0.685,0.196,2.935,2.592c2.25,2.397,10.712,9.978,10.712,9.978s10.859,10.076,11.935,10.859
					c1.076,0.783,5.136,4.647,8.169,6.016l8.119-18.489l3.62-9.147l1.956-7.533h0.636l0.147-6.065l-0.489-7.239
					c0,0,0.098-0.587,0.489-1.027c0.391-0.44,1.908-3.13,1.908-3.815s-0.685-4.696-0.685-4.696s-0.342-1.027,0.391-1.125
					c0.734-0.098,3.473,0.831,3.815,2.739l0.978-0.342c0,0,1.467-3.522,3.082-5.625c1.614-2.103,3.277-3.424,4.304-2.739
					c1.027,0.685,0.489,1.81,0.489,1.81l-3.228,5.918c0,0-1.419,1.908,0.342,2.592c0,0,3.815,2.446,4.06,4.598
					c0.245,2.152-1.125,3.962-2.348,5.576c-1.223,1.614-3.375,5.038-3.375,5.038l-2.495,2.201l-1.027,3.815l1.174,1.467l-1.761,7.63
					l-1.272,5.723l-0.636,3.473l-4.011,13.696l-3.962,11.935c0,0-2.054,6.848-7.044,6.652c-4.989-0.196-10.467-2.886-12.228-3.766
					c-1.761-0.88-16.239-8.56-16.239-8.56l-2.959-1.419c0,0,0.563,1.565,0.514,4.207c-0.049,2.641-2.886,8.462-3.717,9.783
					l-0.489,10.321c0,0-0.342,2.69,0.098,5.38c0.44,2.69,2.69,17.902,3.179,19.81c0,0-4.859,4.402-19.337,6.489
					c-14.478,2.087-21.261-1.304-21.261-1.304l-6.456-3.783l7.956-15.717c0,0,1.955-4.672,1.794-5.902
					c-0.163-1.239-3.62-6.522-3.62-6.522l-12.587-22.272l-0.587,0.196l-1.956,6.522l-7.044,22.109l-9.261,27.587
					c0,0-2.543,6.978-3.587,9.065l-2.935,8.935c0,0,0.326,3.065,1.174,4.63l-7.37-4.761l1.304-6.978l1.63-10.435l2.022-11.348
					l1.761-9.391l2.804-12.522l0.978-3.456l1.957-9.783l3.522-17.739l3-15.196l21-8.348l1.304-0.978c0,0,0.456-3.261,2.087-5.413
					c1.63-2.152,2.641-2.87,2.641-2.87s-0.098-1.304-0.163-2.543c-0.065-1.239-0.391-3.522-0.391-3.522
					S168.283,186.522,170.956,184.826z"/>
				<path style="fill:none;stroke:#FFFFFF;stroke-width:0.5303;stroke-linecap:round;stroke-miterlimit:10;" d="M142.867,144.64
					c0,0,3.889-8.613,11.668-8.613c7.779,0,23.893,15.28,23.893,15.28"/>
				<path style="fill:none;stroke:#FFFFFF;stroke-width:0.5303;stroke-linecap:round;stroke-miterlimit:10;" d="M146.201,146.029
					c0,0,4.723-5.001,10.557-3.056c5.834,1.945,6.668,8.89,6.668,8.89"/>
				<path style="fill:none;stroke:#FFFFFF;stroke-width:0.5303;stroke-linecap:round;stroke-miterlimit:10;" d="M142.312,146.863
					c0,0-6.945,3.89-7.501,11.113c-0.555,7.223,9.724,15.836,11.113,25.559c1.389,9.724-5.834,11.947-17.503,20.003
					c-11.668,8.057-9.724,26.115-7.223,30.005"/>
				<path style="fill:none;stroke:#FFFFFF;stroke-width:0.5303;stroke-linecap:round;stroke-miterlimit:10;" d="M122.587,235.765
					c0,0,1.667,3.612,4.167,4.723"/>
				<path style="fill:none;stroke:#FFFFFF;stroke-width:0.5303;stroke-linecap:round;stroke-miterlimit:10;" d="M143.145,165.755
					c0,0-1.111,1.945,0.278,4.445c1.389,2.5,11.946,15.002,11.113,20.837c-0.833,5.834-6.39,9.446-6.39,9.446"/>
				<path style="fill:none;stroke:#FFFFFF;stroke-width:0.5303;stroke-linecap:round;stroke-miterlimit:10;" d="M148.424,146.863
					c0,0-6.39,2.778-6.112,9.168c0.278,6.39,1.667,8.057,1.667,8.057"/>
				<path style="fill:none;stroke:#FFFFFF;stroke-width:0.5303;stroke-linecap:round;stroke-miterlimit:10;" d="M178.428,167.977
					c0,0,3.056,7.223,8.057,12.224c5.001,5.001,5.557,12.224,5.557,12.224"/>
				<path style="fill:none;stroke:#FFFFFF;stroke-width:0.5303;stroke-linecap:round;stroke-miterlimit:10;" d="M184.263,183.813
					c0,0,2.5,5.834,2.5,9.446"/>
			</g>
			<g>
				<g>
					<path style="fill:#92E3A9;" d="M170.427,185.359l-7.852,7.069c0,0-0.837,2.147-2.417,5.57
						c-1.58,3.423-1.317,10.005-1.317,10.005l4.839,9.625c0,0-9.315-10.678-9.841-11.995c-0.527-1.317-10.269,1.053-12.112,1.843
						c-1.843,0.79-4.213,2.37-3.686,4.74c0.527,2.37,2.896,5.529,1.843,6.056c-1.053,0.527-3.949-0.79-3.949,0.79
						c0,1.58,3.423,7.636,1.843,9.742c-1.58,2.107-11.585,36.072-11.585,36.072s6.319-5.266,4.74-3.16
						c-1.58,2.107-9.216,19.221-9.216,19.221l-2.896,10.005l6.846-35.546l5.793-30.016l3.484-18.363
						c3.361-1.121,22.846-8.966,22.846-8.966s1.538-6.477,4.455-9.19l-0.553-5.055C161.691,183.806,167.004,185.622,170.427,185.359
						z"/>
					<path style="opacity:0.5;fill:#FFFFFF;" d="M170.427,185.359l-7.852,7.069c0,0-0.837,2.147-2.417,5.57
						c-1.58,3.423-1.317,10.005-1.317,10.005l4.839,9.625c0,0-9.315-10.678-9.841-11.995c-0.527-1.317-10.269,1.053-12.112,1.843
						c-1.843,0.79-4.213,2.37-3.686,4.74c0.527,2.37,2.896,5.529,1.843,6.056c-1.053,0.527-3.949-0.79-3.949,0.79
						c0,1.58,3.423,7.636,1.843,9.742c-1.58,2.107-11.585,36.072-11.585,36.072s6.319-5.266,4.74-3.16
						c-1.58,2.107-9.216,19.221-9.216,19.221l-2.896,10.005l6.846-35.546l5.793-30.016l3.484-18.363
						c3.361-1.121,22.846-8.966,22.846-8.966s0.418-5.953,4.461-8.105l-0.559-6.14C161.691,183.806,167.004,185.622,170.427,185.359
						z"/>
				</g>
				<g>
					<path style="fill:#92E3A9;" d="M199.654,220.904c0,0,4.739-7.899,5.266-6.056c0.527,1.843-1.317,8.162-1.317,8.162
						s5.003-1.843,4.476-0.263c-0.527,1.58-1.58,2.37-1.316,3.16c0.263,0.79,17.378,9.742,19.484,10.795
						c2.107,1.053,7.109-5.003,9.479-3.16c2.37,1.843,0.008,8.145-4.739,8.162c-4.747,0.018-18.431-6.056-18.431-6.056
						l-10.776-6.274"/>
					<path style="opacity:0.5;fill:#FFFFFF;" d="M199.654,220.904c0,0,4.739-7.899,5.266-6.056c0.527,1.843-1.317,8.162-1.317,8.162
						s5.003-1.843,4.476-0.263c-0.527,1.58-1.58,2.37-1.316,3.16c0.263,0.79,17.378,9.742,19.484,10.795
						c2.107,1.053,7.109-5.003,9.479-3.16c2.37,1.843,0.008,8.145-4.739,8.162c-4.747,0.018-18.431-6.056-18.431-6.056
						l-10.735-6.248"/>
				</g>
				<g>
					<path style="fill:#92E3A9;" d="M171.217,252.764c0,0,30.806-16.325,25.804-10.269
						C192.018,248.551,175.43,255.396,171.217,252.764z"/>
					<path style="opacity:0.5;fill:#FFFFFF;" d="M171.217,252.764c0,0,30.806-16.325,25.804-10.269
						C192.018,248.551,175.43,255.396,171.217,252.764z"/>
				</g>
				<path style="fill:none;stroke:#263238;stroke-width:1.0607;stroke-linecap:round;stroke-miterlimit:10;" d="M161.691,183.806
					c0,0,0.221,4.2,0.884,8.621c0.663,4.421,0.442,4.421,4.642,9.726c4.2,5.305,8.621,9.727,9.284,8.842"/>
				<path style="fill:none;stroke:#263238;stroke-width:1.0607;stroke-linecap:round;stroke-miterlimit:10;" d="M176.723,209.449
					c0,0,0.442-7.737-1.105-12.821c-1.547-5.084-3.758-6.853-3.758-7.958c0-1.105-0.442-3.537-0.442-3.537"/>
				<path style="fill:none;stroke:#263238;stroke-width:1.0607;stroke-linecap:round;stroke-miterlimit:10;" d="M161.691,190.217
					c0,0-2.874,2.432-3.537,5.969c-0.663,3.537-1.326,7.737-1.326,7.737l6.853,13.705c0,0,1.105-4.421,2.653-6.853
					c1.547-2.432,2.211-2.874,2.211-2.874"/>
				<path style="fill:none;stroke:#263238;stroke-width:1.0607;stroke-linecap:round;stroke-miterlimit:10;" d="M178.27,205.691
					c0,0,1.105-0.442,2.874,0.442c1.768,0.884,5.305,5.526,5.305,5.526s-2.432-11.495-6.632-17.464
					c-4.2-5.969-7.074-5.526-7.074-5.526"/>
				<path style="fill:none;stroke:#263238;stroke-linecap:round;stroke-linejoin:round;stroke-miterlimit:10;" d="M156.165,198.838
					l-21.221,8.179c0,0-7.737,42.222-10.611,53.496c-2.874,11.274-7.737,43.106-7.737,43.106l5.748,1.105l1.989-5.747"/>
				<path style="fill:none;stroke:#263238;stroke-width:1.0607;stroke-linecap:round;stroke-miterlimit:10;" d="M125.438,295.661
					c0,0,1.326-1.99,4.863-13.042c3.537-11.053,13.042-38.022,14.59-43.327c1.547-5.305,2.874-8.842,2.874-8.842"/>
				<path style="fill:none;stroke:#263238;stroke-width:1.0607;stroke-linecap:round;stroke-miterlimit:10;" d="M144.006,224.038
					c0,0,17.906,32.053,19.453,33.379c1.547,1.326-0.663,5.085-1.105,7.074"/>
				<path style="fill:none;stroke:#263238;stroke-width:1.0607;stroke-linecap:round;stroke-miterlimit:10;" d="M160.365,268.471
					l-5.747,11.937c0,0,3.758,5.747,19.674,5.747c15.916,0,27.19-6.632,27.19-6.632s-3.758-19.895-3.537-23.432
					c0.221-3.537,0.663-12.821,0.663-12.821s3.979-5.968,3.537-10.611c-0.442-4.642-2.432-9.947-2.432-10.832
					c0-0.884-0.442-10.39-0.442-10.39"/>
				<g>
					
						<line style="fill:none;stroke:#263238;stroke-width:0.5303;stroke-linecap:round;stroke-miterlimit:10;" x1="174.261" y1="248.823" x2="190.097" y2="239.099"/>
					
						<line style="fill:none;stroke:#263238;stroke-width:0.5303;stroke-linecap:round;stroke-miterlimit:10;" x1="182.596" y1="245.767" x2="191.208" y2="240.766"/>
					
						<line style="fill:none;stroke:#263238;stroke-width:0.5303;stroke-linecap:round;stroke-miterlimit:10;" x1="229.997" y1="226.47" x2="226.769" y2="234.376"/>
					
						<line style="fill:none;stroke:#263238;stroke-width:0.5303;stroke-linecap:round;stroke-miterlimit:10;" x1="228.714" y1="229.931" x2="225.658" y2="232.987"/>
					<path style="fill:none;stroke:#263238;stroke-width:0.5303;stroke-linecap:round;stroke-miterlimit:10;" d="M138.422,257.991
						c0,0-5.279,6.112-8.89,8.613"/>
					<path style="fill:none;stroke:#263238;stroke-width:0.5303;stroke-linecap:round;stroke-miterlimit:10;" d="M135.366,259.658
						c0,0-9.168,7.223-11.39,8.89"/>
					<path style="fill:none;stroke:#263238;stroke-width:0.5303;stroke-linecap:round;stroke-miterlimit:10;" d="M137.033,208.261
						c0,0,5.278,7.501,7.501,12.224"/>
					
						<line style="fill:none;stroke:#263238;stroke-width:0.5303;stroke-linecap:round;stroke-miterlimit:10;" x1="145.368" y1="222.43" x2="147.313" y2="225.764"/>
					
						<line style="fill:none;stroke:#263238;stroke-width:0.5303;stroke-linecap:round;stroke-miterlimit:10;" x1="199.713" y1="221.828" x2="202.144" y2="209.449"/>
					
						<line style="fill:none;stroke:#263238;stroke-width:0.5303;stroke-linecap:round;stroke-miterlimit:10;" x1="200.597" y1="222.712" x2="204.355" y2="217.407"/>
					
						<line style="fill:none;stroke:#263238;stroke-width:0.5303;stroke-linecap:round;stroke-miterlimit:10;" x1="147.764" y1="230.449" x2="137.154" y2="224.701"/>
					<path style="fill:none;stroke:#263238;stroke-width:0.5303;stroke-linecap:round;stroke-miterlimit:10;" d="M176.281,212.101
						c0,0,3.979,7.958,5.305,13.706"/>
					<path style="fill:none;stroke:#263238;stroke-width:0.5303;stroke-linecap:round;stroke-miterlimit:10;" d="M241.934,198.175
						c0,0,3.442-0.359,5.838,2.037"/>
					
						<line style="fill:none;stroke:#263238;stroke-width:0.5303;stroke-linecap:round;stroke-miterlimit:10;" x1="120.443" y1="298.105" x2="123.182" y2="299.132"/>
				</g>
				<g>
					<path style="fill:#FFFFFF;stroke:#263238;stroke-linecap:round;stroke-miterlimit:10;" d="M116.533,303.946
						c0,0,0.063,6.747-0.6,11.389c-0.663,4.642-0.442,15.253,0.442,18.569c0.884,3.316,1.326,3.979,2.211,1.989
						c0.884-1.989,3.537-13.706,3.537-13.706s0.442,7.737,2.432,7.074c1.99-0.663,0.884-4.421,0.884-7.737s0.221-4.421,0-7.074
						c-0.221-2.653-3.166-9.2-3.166-9.2"/>
					<path style="fill:none;stroke:#263238;stroke-width:0.8808;stroke-linecap:round;stroke-miterlimit:10;" d="M244.506,190.925
						c0,0-0.184-4.039,0-5.874c0.183-1.836-0.551-4.589-0.367-6.976c0.184-2.387,2.57-3.305,2.203-6.425
						c-0.367-3.121-1.102-3.488-0.551-4.222c0.551-0.734,4.039,0.367,4.222,2.387c0.184,2.019,0.184,5.691,0,6.242
						c-0.184,0.551,1.101,4.039,0.367,5.507c-0.734,1.469-0.918,2.57-0.918,2.57"/>
					<path style="fill:none;stroke:#263238;stroke-width:0.8808;stroke-linecap:round;stroke-miterlimit:10;" d="M250.748,169.63
						c0,0,4.222-8.445,6.609-8.628c2.386-0.184,1.652,2.019,0.918,3.121c-0.734,1.102-3.121,5.14-3.304,6.792
						c-0.183,1.652-2.386,7.16-2.386,7.16"/>
					<path style="fill:none;stroke:#263238;stroke-width:0.8808;stroke-linecap:round;stroke-miterlimit:10;" d="M254.97,170.915
						c0,0,6.425,3.855,4.957,6.976c-1.469,3.121-2.203,4.406-3.304,4.039c-1.102-0.367-2.57-2.019-2.57-2.019"/>
					<path style="fill:none;stroke:#263238;stroke-width:0.8808;stroke-linecap:round;stroke-miterlimit:10;" d="M257.357,181.93
						c0,0-1.652,2.754-2.937,4.406c-1.285,1.652-2.593,2.518-2.593,2.518l-0.774,2.709"/>
				</g>
				<path style="fill:none;stroke:#263238;stroke-width:1.0607;stroke-linecap:round;stroke-miterlimit:10;" d="M180.26,195.301
					c0,0,15.253-0.221,17.242,2.211c1.989,2.432,26.085,24.537,28.958,26.527c2.874,1.989,3.537,2.432,3.537,2.432
					s11.937-26.969,11.937-28.295c0-1.326,1.989-7.295,1.989-7.295s3.758,0.442,4.642,0.442s3.316,2.874,3.316,2.874
					s-3.316,13.484-3.316,15.032c0,1.548-6.19,22.548-9.063,28.958c-2.874,6.411-6.853,5.526-13.263,3.537
					c-6.411-1.99-23.874-11.937-23.874-11.937"/>
			</g>
			<g>
				<path style="fill:#263238;" d="M154.617,280.408c0,0-8.845,22.147-11.241,37.208c-2.396,15.06-1.369,50.316-2.054,54.081
					c-0.685,3.765-10.269,21.564-10.269,30.121c0,8.557-5.134,52.712-5.134,52.712l3.423,2.054c0,0,11.98-36.967,16.43-46.551
					c4.45-9.584,10.611-32.174,12.322-36.624c1.711-4.45,13.691-40.047,14.376-44.497c0.685-4.45,4.792-15.403,4.792-15.403
					s8.899,54.423,10.611,65.718c1.711,11.296,13.691,72.564,13.691,72.564s1.369,0.342,2.396,0.342
					c1.027,0,1.369-1.711,1.369-1.711s4.792-43.47,3.423-55.108c-1.369-11.638-5.477-26.014-5.477-30.121
					c0-4.107,6.161-39.705,6.161-52.027c0-12.322-7.956-33.642-7.956-33.642S173.046,293.858,154.617,280.408z"/>
				<path style="fill:none;stroke:#FFFFFF;stroke-width:0.5303;stroke-linecap:round;stroke-miterlimit:10;" d="M203.155,367.453
					c0,0-3.056,13.058-7.223,20.003"/>
				<path style="fill:none;stroke:#FFFFFF;stroke-width:0.5303;stroke-linecap:round;stroke-miterlimit:10;" d="M202.321,380.788
					c0,0-2.5,9.446-7.501,13.891"/>
				<path style="fill:none;stroke:#FFFFFF;stroke-width:0.5303;stroke-linecap:round;stroke-miterlimit:10;" d="M143.145,376.621
					c0,0,1.945,11.391,4.167,16.114"/>
				<path style="fill:none;stroke:#FFFFFF;stroke-width:0.5303;stroke-linecap:round;stroke-miterlimit:10;" d="M142.59,383.288
					c0,0,1.667,8.057,4.723,12.78"/>
				
					<line style="fill:none;stroke:#FFFFFF;stroke-width:0.5303;stroke-linecap:round;stroke-miterlimit:10;" x1="178.151" y1="313.555" x2="189.263" y2="304.387"/>
				
					<line style="fill:none;stroke:#FFFFFF;stroke-width:0.5303;stroke-linecap:round;stroke-miterlimit:10;" x1="183.429" y1="309.666" x2="196.487" y2="303.832"/>
				<path style="fill:none;stroke:#FFFFFF;stroke-width:0.5303;stroke-linecap:round;stroke-miterlimit:10;" d="M154.814,294.108
					c0,0,8.613,5.556,13.613,10.279"/>
			</g>
			<g>
				<path style="fill:#FFFFFF;stroke:#263238;stroke-width:1.0607;stroke-linecap:round;stroke-miterlimit:10;" d="M126.282,454.5
					c0,0-13.027,10.982-13.027,16.459c0,5.477,5.134,5.134,10.611,0c5.477-5.134,5.766-15.702,5.766-15.702L126.282,454.5z"/>
				<path style="fill:#FFFFFF;stroke:#263238;stroke-width:1.0607;stroke-linecap:round;stroke-miterlimit:10;" d="M201.564,451.79
					c0,0,4.45,10.953,9.242,15.745c4.792,4.792,7.53,6.504,7.53,1.369c0-5.134-3.081-10.953-13.007-18.483
					C205.33,450.421,208.068,452.475,201.564,451.79z"/>
			</g>
			<g>
				<g>
					<defs>
						<path id="XMLID_1_" d="M155.636,148.699c-0.881-0.333-1.729-0.728-2.596-1.096c-0.908-0.386-2.456-0.576-3.064,2.16
							c-0.884,3.979,5.305,7.295,3.316,10.611c-1.99,3.316-5.305,4.421-5.305,4.421s-0.172,0.103-1.105,0.221
							c-1.768,0.224-4.642,0-3.758,3.095c0.884,3.095,3.758,5.747,5.526,5.747c1.768,0,1.768,0,1.768,0s1.99,5.969,9.505,9.284
							c7.516,3.316,12.6,3.095,14.369-1.105c1.768-4.2,3.095-7.737,3.095-13.264c0-5.526-1.99-14.811-1.99-14.811
							s-1.768,2.432-8.621-0.663C162.236,151.25,157.987,149.588,155.636,148.699z"/>
					</defs>
					<use xlink:href="#XMLID_1_"  style="overflow:visible;fill:#FFFFFF;"/>
					<clipPath id="XMLID_00000104665562290942492080000016749968426045819564_">
						<use xlink:href="#XMLID_1_"  style="overflow:visible;"/>
					</clipPath>
					<path style="opacity:0.5;clip-path:url(#XMLID_00000104665562290942492080000016749968426045819564_);fill:#92E3A9;" d="
						M166.775,153.3c0,0-10.566-0.591-12.146-0.328c-1.58,0.263,0.263,5.003-0.263,9.742c-0.527,4.74-0.263,12.375,1.843,14.745
						c2.106,2.37,7.899,6.846,7.899,6.846s-8.162-1.317-11.059-4.739c-2.896-3.423-3.423-5.266-3.423-5.266s-6.846-3.95-7.372-7.109
						c-0.527-3.16,3.958-1.458,6.17-2.981c1.218-0.839,6.268-2.417,4.952-6.629c-1.317-4.213-3.315-4.971-3.401-7.817
						c-0.059-1.978,1.703-2.582,2.784-2.766c0.488-0.083,0.988,0.002,1.434,0.217L166.775,153.3z"/>
					
						<use xlink:href="#XMLID_1_"  style="overflow:visible;fill:none;stroke:#263238;stroke-width:1.0607;stroke-linecap:round;stroke-miterlimit:10;"/>
				</g>
				<path style="fill:#263238;" d="M163.449,161.797c0.137,0.843-0.093,1.583-0.515,1.652c-0.422,0.069-0.875-0.559-1.012-1.403
					c-0.137-0.843,0.093-1.583,0.515-1.652C162.859,160.326,163.312,160.954,163.449,161.797z"/>
				<path style="fill:#263238;" d="M172.596,160.27c0.137,0.844-0.093,1.583-0.515,1.652c-0.422,0.069-0.875-0.56-1.012-1.403
					s0.093-1.583,0.515-1.652C172.005,158.798,172.458,159.426,172.596,160.27z"/>
				<path style="fill:none;stroke:#263238;stroke-width:1.0607;stroke-linecap:round;stroke-miterlimit:10;" d="M158.154,157.721
					c0,0,1.548-2.653,5.084-2.653"/>
				<path style="fill:none;stroke:#263238;stroke-width:1.0607;stroke-linecap:round;stroke-miterlimit:10;" d="M170.091,155.732
					c0,0,2.653-1.105,4.863,1.326"/>
				<path style="fill:none;stroke:#263238;stroke-width:1.0607;stroke-linecap:round;stroke-miterlimit:10;" d="M169.207,159.49
					c0,0-0.221,2.432,0,4.2c0.221,1.768,1.548,2.211,1.105,3.537c-0.442,1.326-2.211,1.326-2.211,1.326"/>
				<path style="fill:none;stroke:#263238;stroke-width:1.0607;stroke-linecap:round;stroke-miterlimit:10;" d="M165.891,173.858
					c0,0-2.653,0.663-4.421-0.884"/>
			</g>
		</g>
	</g>
</g>
</svg>
