<?xml version="1.0" encoding="utf-8"?>
<!-- Generator: Adobe Illustrator 27.5.0, SVG Export Plug-In . SVG Version: 6.00 Build 0)  -->
<svg version="1.1" xmlns="http://www.w3.org/2000/svg" xmlns:xlink="http://www.w3.org/1999/xlink" x="0px" y="0px"
	 viewBox="0 0 750 500" style="enable-background:new 0 0 750 500;" xml:space="preserve">
<g id="Background_Simple">
	<g>
		<path style="fill:#92E3A9;" d="M693.447,214.298c-4.587-9.663-11.536-18.012-19.976-24.585
			c-35.883-27.941-203.705-155.23-286.272-157.872C294.44,28.873-9.07,376.165,19.129,408.816
			c28.199,32.651,376.975,81.628,417.789,71.981c40.814-9.647,232.962-194.137,250.822-215.202
			C703.417,247.105,699.933,227.962,693.447,214.298z"/>
		<path style="opacity:0.7;fill:#FFFFFF;" d="M693.447,214.298c-4.587-9.663-11.536-18.012-19.976-24.585
			c-35.883-27.941-203.705-155.23-286.272-157.872C294.44,28.873-9.07,376.165,19.129,408.816
			c28.199,32.651,376.975,81.628,417.789,71.981c40.814-9.647,232.962-194.137,250.822-215.202
			C703.417,247.105,699.933,227.962,693.447,214.298z"/>
	</g>
</g>
<g id="Clouds">
	<path style="opacity:0.3;fill:none;stroke:#000000;stroke-miterlimit:10;" d="M661.768,139.443c0,0-6.679-32.651-28.947-30.425
		c-10.125,1.014-16.896,6.086-22.764,13.967c-7.531,10.115-10.226,4.233-21.013,7.552c-9.647,2.968-8.163,11.131-14.099,12.615
		c-5.937,1.484-10.389-5.194-18.552-3.71c-8.163,1.484-12.615,9.647-12.615,9.647h148.415c0,0-0.742-8.905-10.389-11.873
		C672.157,134.248,667.704,141.669,661.768,139.443z"/>
	<path style="opacity:0.3;fill:none;stroke:#000000;stroke-miterlimit:10;" d="M207.283,70.466c0,0-4.564-22.312-19.78-20.79
		c-6.919,0.693-11.546,4.159-15.555,9.544c-5.146,6.912-6.988,2.893-14.359,5.161c-6.592,2.028-5.578,7.606-9.635,8.62
		c-4.057,1.014-7.099-3.55-12.677-2.535c-5.578,1.014-8.62,6.592-8.62,6.592h101.418c0,0-0.507-6.085-7.099-8.113
		C214.382,66.917,211.339,71.988,207.283,70.466z"/>
</g>
<g id="Money">
	<g style="opacity:0.3;">
		
			<rect x="517.942" y="39.716" transform="matrix(0.4299 -0.9029 0.9029 0.4299 235.6054 535.545)" style="fill:none;stroke:#000000;stroke-miterlimit:10;" width="47.917" height="82.96"/>
		<path style="fill:none;stroke:#000000;stroke-miterlimit:10;" d="M523.46,51.028c-1.373,2.883-4.822,4.107-7.705,2.734
			c-0.219-0.104-0.425-0.224-0.625-0.352l-11.829,24.84c0.225,0.075,0.448,0.159,0.667,0.263c2.883,1.373,4.107,4.822,2.734,7.705
			c-0.052,0.109-0.112,0.211-0.17,0.315l53.518,25.485c0.045-0.11,0.086-0.222,0.138-0.331c1.373-2.883,4.822-4.107,7.705-2.734
			c0.219,0.104,0.425,0.224,0.625,0.352l11.829-24.84c-0.225-0.075-0.448-0.159-0.667-0.263c-2.883-1.373-4.107-4.822-2.734-7.705
			c0.104-0.219,0.224-0.425,0.351-0.625l-53.574-25.512C523.649,50.586,523.564,50.809,523.46,51.028z M550.456,85.271
			c-2.25,4.725-7.905,6.732-12.63,4.481c-4.725-2.25-6.732-7.905-4.481-12.63c2.25-4.725,7.905-6.731,12.63-4.481
			C550.7,74.891,552.706,80.546,550.456,85.271z"/>
	</g>
	<g style="opacity:0.3;">
		
			<rect x="71.983" y="64.219" transform="matrix(0.4299 -0.9029 0.9029 0.4299 -40.7395 146.8763)" style="fill:none;stroke:#000000;stroke-miterlimit:10;" width="47.917" height="82.96"/>
		<path style="fill:none;stroke:#000000;stroke-miterlimit:10;" d="M77.501,75.531c-1.373,2.882-4.822,4.106-7.705,2.734
			c-0.219-0.104-0.425-0.224-0.625-0.352l-11.829,24.84c0.224,0.075,0.447,0.159,0.667,0.263c2.883,1.373,4.107,4.822,2.734,7.705
			c-0.052,0.109-0.112,0.211-0.17,0.315l53.518,25.485c0.045-0.11,0.085-0.222,0.137-0.331c1.373-2.883,4.822-4.107,7.705-2.734
			c0.219,0.104,0.425,0.224,0.625,0.352l11.829-24.84c-0.225-0.075-0.448-0.159-0.667-0.263c-2.883-1.373-4.107-4.822-2.734-7.705
			c0.104-0.219,0.224-0.425,0.352-0.625L77.764,74.864C77.689,75.089,77.605,75.312,77.501,75.531z M104.497,109.774
			c-2.25,4.725-7.905,6.731-12.63,4.481c-4.725-2.25-6.731-7.905-4.481-12.63c2.25-4.725,7.905-6.732,12.63-4.481
			C104.741,99.394,106.747,105.049,104.497,109.774z"/>
	</g>
	<g style="opacity:0.3;">
		
			<rect x="607.02" y="197.793" transform="matrix(0.4299 -0.9029 0.9029 0.4299 143.6653 706.0836)" style="fill:none;stroke:#000000;stroke-miterlimit:10;" width="47.917" height="82.96"/>
		<path style="fill:none;stroke:#000000;stroke-miterlimit:10;" d="M612.538,209.105c-1.373,2.883-4.822,4.107-7.705,2.734
			c-0.219-0.104-0.425-0.224-0.625-0.352l-11.829,24.84c0.224,0.075,0.448,0.159,0.667,0.263c2.883,1.373,4.107,4.822,2.734,7.705
			c-0.052,0.109-0.112,0.211-0.17,0.315l53.518,25.485c0.045-0.11,0.086-0.222,0.138-0.331c1.373-2.883,4.822-4.107,7.705-2.734
			c0.219,0.104,0.425,0.224,0.625,0.352l11.829-24.84c-0.225-0.075-0.448-0.159-0.667-0.263c-2.883-1.373-4.107-4.822-2.734-7.705
			c0.104-0.219,0.224-0.425,0.352-0.625l-53.574-25.512C612.727,208.662,612.642,208.885,612.538,209.105z M639.534,243.348
			c-2.25,4.725-7.905,6.731-12.63,4.481c-4.725-2.25-6.732-7.905-4.481-12.63c2.25-4.725,7.905-6.731,12.63-4.481
			C639.778,232.968,641.784,238.623,639.534,243.348z"/>
	</g>
	<g style="opacity:0.3;">
		
			<rect x="391.814" y="82.127" transform="matrix(-0.587 -0.8096 0.8096 -0.587 559.7374 532.7775)" style="fill:none;stroke:#000000;stroke-miterlimit:10;" width="47.917" height="82.96"/>
		<path style="fill:none;stroke:#000000;stroke-miterlimit:10;" d="M380.458,125.36c1.874,2.585,1.298,6.199-1.287,8.074
			c-0.197,0.142-0.401,0.266-0.608,0.38l16.149,22.275c0.173-0.161,0.354-0.317,0.55-0.459c2.585-1.874,6.2-1.298,8.074,1.287
			c0.071,0.098,0.131,0.2,0.195,0.3l47.991-34.793c-0.076-0.092-0.154-0.181-0.224-0.279c-1.874-2.585-1.298-6.2,1.287-8.074
			c0.197-0.143,0.401-0.266,0.608-0.38l-16.149-22.275c-0.173,0.161-0.354,0.317-0.55,0.459c-2.585,1.874-6.2,1.298-8.074-1.287
			c-0.142-0.197-0.266-0.401-0.38-0.608l-48.041,34.829C380.16,124.982,380.315,125.163,380.458,125.36z M423.445,118.046
			c3.072,4.237,2.127,10.162-2.11,13.234c-4.237,3.072-10.162,2.127-13.234-2.11c-3.072-4.237-2.127-10.162,2.11-13.234
			C414.448,112.864,420.373,113.809,423.445,118.046z"/>
	</g>
</g>
<g id="Plants">
	<g style="opacity:0.15;">
		<path d="M48.461,203.245c6.342,0.208,19.437-5.351,19.447-5.355c0.135-0.058-6.285-7.519-6.744-7.943
			c-5.314-4.911-18.47-11.274-25.529-7.296c-5.085,2.866-5.932,9.435-2.704,14.012C36.23,201.338,43.06,203.066,48.461,203.245z"/>
		<path d="M68.263,239.702c5.929-1.415,16.36-9.529,17.187-10.179c4.491,5.86,9.574,11.509,15.033,16.942
			c3.117,3.11,6.354,6.145,9.637,9.147c-1.703-1.147-3.235-2.16-3.463-2.28c-6.424-3.333-20.793-5.995-26.548-0.293
			c-4.15,4.107-3.231,10.665,1.091,14.228c4.412,3.639,11.46,3.501,16.716,2.247c5.335-1.272,14.365-8.013,16.732-9.829
			c1.272,1.139,2.529,2.29,3.805,3.422c6.122,5.44,12.254,10.842,18.108,16.324c2.064,1.931,4.024,3.908,5.995,5.88
			c-1.514-1.018-2.797-1.862-3.007-1.971c-6.422-3.332-20.791-5.996-26.548-0.294c-4.148,4.108-3.23,10.667,1.092,14.228
			c4.416,3.638,11.46,3.501,16.716,2.246c5.091-1.214,13.483-7.361,16.305-9.505c1.956,2.08,3.919,4.16,5.721,6.263
			c1.198,1.464,2.454,2.79,3.573,4.328c1.143,1.499,2.272,2.983,3.393,4.453c2.052,2.908,4.188,5.897,6.118,8.786
			c1.358,1.998,2.616,3.929,3.888,5.869c-2.032-1.946-6.089-5.672-6.464-5.946c-5.842-4.267-19.641-9.075-26.197-4.312
			c-4.722,3.432-4.809,10.054-1.075,14.229c3.812,4.264,10.796,5.197,16.181,4.753c5.93-0.49,17.046-6.626,18.43-7.402
			c2.094,3.217,4.1,6.367,5.945,9.37c1.661,2.688,3.201,5.249,4.656,7.706l4.716-1.878c-1.649-2.664-3.407-5.453-5.314-8.394
			c-2.112-3.276-4.436-6.734-6.856-10.264c0.741-0.7,4.929-4.707,8.367-8.94c5.515,2.638,17.332,3.59,18.857,3.702
			c-0.027,3.839-0.092,7.573-0.21,11.095c-0.075,2.426-0.167,4.754-0.271,6.996l4.996-1.989c0.032-1.599,0.06-3.221,0.076-4.908
			c0.045-3.898,0.016-8.066-0.056-12.343c1.534-0.268,14.057-2.528,18.972-5.897c4.456-3.057,9.285-8.19,9.549-13.905
			c0.259-5.594-3.99-10.675-9.82-10.354c-8.09,0.444-15.755,12.886-17.592,19.884c-0.11,0.413-0.785,5.024-1.163,7.939
			c-0.038-1.747-0.056-3.445-0.118-5.244c-0.096-3.558-0.299-7.105-0.502-10.923c-0.162-1.84-0.327-3.699-0.493-5.576
			c-0.126-1.865-0.495-3.819-0.736-5.748c-0.652-4.463-1.531-8.951-2.515-13.452c3.115-0.094,14.172-0.582,19.063-2.94
			c4.869-2.347,10.418-6.687,11.544-12.296c1.104-5.491-2.326-11.157-8.136-11.724c-8.065-0.786-17.526,10.352-20.403,16.991
			c-0.18,0.413-1.708,5.41-2.494,8.169c-0.613-2.702-1.212-5.401-1.921-8.115c-2.046-7.833-4.361-15.697-6.634-23.554
			c-0.698-2.406-1.364-4.812-2.04-7.218c1.109-0.021,14.264-0.317,19.742-2.958c4.868-2.345,10.419-6.687,11.544-12.296
			c1.104-5.49-2.326-11.157-8.136-11.722c-8.065-0.787-17.526,10.35-20.402,16.989c-0.216,0.5-2.406,7.692-2.873,9.549
			c-1.488-5.3-2.921-10.594-4.122-15.871c-1.668-7.277-2.9-14.512-3.577-21.608c0.516-0.008,14.248-0.257,19.859-2.96
			c4.868-2.347,10.419-6.689,11.545-12.297c1.103-5.49-2.326-11.156-8.137-11.723c-8.065-0.786-17.525,10.351-20.403,16.99
			c-0.225,0.521-2.576,8.26-2.902,9.694c-0.038-0.422-0.126-0.855-0.16-1.277c-0.626-7.585-0.281-15.012,0.384-21.948
			c0.378-4.032,0.966-7.865,1.62-11.58c2.563,0.216,14.284,1.074,19.602-0.801c5.096-1.797,11.09-5.504,12.825-10.954
			c1.7-5.337-1.086-11.345-6.799-12.546c-7.93-1.667-18.557,8.363-22.145,14.647c-0.195,0.341-1.793,4.034-2.92,6.74
			c0.321-1.673,0.62-3.405,0.961-5c1.26-5.997,2.784-11.41,4.173-16.194c0.811-2.713,1.598-5.151,2.36-7.425
			c2.624-1.098,13.148-5.664,16.934-9.704c3.693-3.944,7.307-9.994,6.336-15.632c-0.952-5.52-6.194-9.568-11.816-8.001
			c-7.806,2.173-12.616,15.973-12.906,23.203c-0.024,0.625,0.707,10.442,0.845,10.385c0,0,0.128-0.053,0.159-0.065
			c-0.777,2.173-1.583,4.511-2.413,7.083c-1.496,4.763-3.142,10.157-4.537,16.149c-1.411,5.985-2.775,12.527-3.59,19.547
			c-0.826,7.036-1.335,14.479-0.868,22.216c0.005,0.087,0.022,0.178,0.027,0.266c-0.839-2.221-3.393-8.352-3.643-8.799
			c-3.519-6.322-14.033-16.471-21.982-14.892c-5.725,1.139-8.578,7.115-6.938,12.471c1.676,5.469,7.626,9.241,12.704,11.095
			c5.725,2.091,18.901,1.076,19.95,0.993c0.511,7.364,1.636,14.879,3.191,22.421c0.885,4.314,1.911,8.631,2.994,12.947
			c-0.788-1.897-1.505-3.587-1.632-3.812c-3.52-6.323-14.032-16.47-21.981-14.891c-5.726,1.137-8.579,7.115-6.938,12.469
			c1.674,5.47,7.626,9.241,12.702,11.095c5.151,1.88,16.403,1.242,19.378,1.033c0.433,1.651,0.847,3.305,1.286,4.954
			c2.105,7.915,4.241,15.802,6.098,23.605c0.657,2.749,1.201,5.48,1.756,8.21c-0.701-1.683-1.306-3.095-1.42-3.3
			c-3.52-6.323-14.033-16.471-21.98-14.893c-5.727,1.14-8.58,7.115-6.94,12.472c1.674,5.468,7.627,9.24,12.703,11.094
			c4.914,1.796,15.306,1.299,18.843,1.067c0.484,2.814,0.974,5.631,1.316,8.38c0.191,1.883,0.505,3.68,0.593,5.582
			c0.125,1.879,0.251,3.741,0.374,5.584c0.106,3.559,0.239,7.23,0.256,10.704c0.03,2.417,0.013,4.72,0.005,7.039
			c-0.622-2.743-1.95-8.09-2.111-8.524c-1.675-4.506-6.151-11.134-11.34-14.981c-0.243-0.667-0.542-1.309-0.908-1.921
			c-2.871-4.809-9.217-6.703-13.903-3.22c-6.503,4.833-6.032,19.44-3.703,26.289c0.137,0.405,2.117,4.623,3.41,7.264
			c-0.998-1.436-1.947-2.842-2.991-4.309c-2.044-2.913-4.17-5.76-6.445-8.834c-1.15-1.445-2.314-2.903-3.489-4.378
			c-1.133-1.485-2.519-2.912-3.784-4.388c-3.005-3.36-6.215-6.621-9.52-9.833c2.548-1.797,11.5-8.304,14.279-12.968
			c2.767-4.642,5-11.326,2.846-16.624c-2.11-5.189-8.095-8.023-13.253-5.29c-7.161,3.793-8.909,18.302-7.645,25.426
			c0.079,0.445,1.56,5.454,2.427,8.191c-2.002-1.915-3.991-3.837-6.079-5.709c-6.027-5.406-12.295-10.689-18.527-15.986
			c-1.909-1.622-3.792-3.26-5.684-4.894c0.914-0.63,11.722-8.136,14.835-13.359c2.766-4.642,5-11.325,2.846-16.625
			c-2.109-5.188-8.095-8.022-13.253-5.289c-7.161,3.793-8.909,18.301-7.646,25.426c0.096,0.537,2.237,7.742,2.872,9.548
			c-4.163-3.598-8.28-7.224-12.193-10.962c-5.405-5.151-10.425-10.504-14.904-16.049c0.427-0.293,11.742-8.076,14.931-13.425
			c2.767-4.643,5-11.325,2.845-16.624c-2.108-5.189-8.094-8.022-13.253-5.289c-7.16,3.792-8.907,18.301-7.644,25.425
			c0.099,0.56,2.408,8.311,2.927,9.685c-0.266-0.329-0.578-0.642-0.839-0.974c-4.706-5.983-8.515-12.367-11.787-18.521
			c-1.909-3.57-3.532-7.091-5.036-10.551c2.256-1.234,12.506-6.984,15.906-11.482c3.26-4.312,6.214-10.709,4.655-16.211
			c-1.527-5.389-7.166-8.864-12.592-6.714c-7.534,2.983-10.864,17.213-10.391,24.432c0.026,0.393,0.729,4.355,1.283,7.234
			c-0.655-1.572-1.361-3.182-1.957-4.701c-2.256-5.696-3.972-11.053-5.453-15.808c-0.821-2.712-1.508-5.18-2.126-7.495
			c1.581-2.366,7.84-11.979,8.769-17.437c0.907-5.328,0.58-12.366-3.339-16.531c-3.839-4.079-10.444-4.564-14.27-0.157
			c-5.312,6.12-1.71,20.283,2.036,26.474c0.325,0.534,6.351,8.317,6.435,8.196c0,0,0.077-0.115,0.095-0.143
			c0.55,2.24,1.169,4.636,1.895,7.239c1.379,4.798,2.982,10.205,5.125,15.973c2.125,5.77,4.596,11.979,7.79,18.284
			c3.192,6.323,6.873,12.814,11.531,19.008c0.053,0.07,0.117,0.136,0.17,0.206c-1.926-1.389-7.439-5.092-7.895-5.329
			c-6.422-3.333-20.79-5.995-26.548-0.295c-4.147,4.108-3.23,10.667,1.092,14.229C55.963,241.094,63.007,240.956,68.263,239.702z"/>
		<path d="M183.271,152.931c0.145,0.027-1.094-9.739-1.242-10.346c-1.725-7.027-9.187-19.591-17.27-20.167
			c-5.822-0.415-10.152,4.597-9.983,10.196c0.17,5.716,4.914,10.927,9.321,14.055C169.271,150.342,183.26,152.928,183.271,152.931z"
			/>
	</g>
	<g style="opacity:0.15;">
		<path d="M391.469,307.274c7.344,0.241,22.505-6.196,22.517-6.201c0.157-0.067-7.277-8.706-7.808-9.197
			c-6.152-5.687-21.386-13.054-29.559-8.447c-5.887,3.319-6.868,10.925-3.131,16.224
			C377.306,305.066,385.214,307.066,391.469,307.274z"/>
		<path d="M539.867,454.511c0.201,0.326,0.385,0.632,0.583,0.954h6.633c-0.817-1.285-1.65-2.587-2.517-3.924
			c-2.446-3.793-5.136-7.797-7.938-11.884c0.858-0.81,5.706-5.45,9.688-10.351c6.385,3.055,20.068,4.157,21.834,4.287
			c-0.031,4.445-0.107,8.768-0.243,12.847c-0.087,2.809-0.194,5.504-0.313,8.101l5.785-2.303c0.037-1.852,0.07-3.73,0.088-5.683
			c0.052-4.513,0.018-9.339-0.064-14.291c1.776-0.31,16.276-2.928,21.967-6.828c5.159-3.54,10.75-9.483,11.057-16.1
			c0.3-6.477-4.62-12.36-11.371-11.988c-9.367,0.514-18.243,14.92-20.369,23.023c-0.127,0.478-0.909,5.817-1.346,9.193
			c-0.044-2.023-0.065-3.988-0.137-6.072c-0.111-4.12-0.346-8.227-0.581-12.647c-0.188-2.13-0.379-4.283-0.57-6.457
			c-0.146-2.159-0.573-4.422-0.852-6.655c-0.755-5.167-1.772-10.363-2.912-15.576c3.607-0.109,16.41-0.674,22.073-3.404
			c5.637-2.717,12.062-7.743,13.367-14.237c1.278-6.358-2.693-12.919-9.421-13.575c-9.338-0.91-20.293,11.986-23.623,19.673
			c-0.209,0.478-1.978,6.264-2.888,9.459c-0.71-3.128-1.403-6.254-2.224-9.396c-2.368-9.069-5.049-18.175-7.682-27.273
			c-0.808-2.786-1.58-5.572-2.363-8.358c1.285-0.024,16.516-0.367,22.859-3.425c5.637-2.715,12.063-7.743,13.367-14.237
			c1.278-6.357-2.693-12.918-9.42-13.573c-9.338-0.911-20.293,11.984-23.623,19.671c-0.25,0.579-2.785,8.907-3.326,11.056
			c-1.723-6.137-3.382-12.266-4.772-18.377c-1.931-8.426-3.358-16.803-4.142-25.019c0.598-0.009,16.498-0.297,22.994-3.427
			c5.637-2.717,12.064-7.745,13.368-14.238c1.277-6.357-2.693-12.917-9.421-13.574c-9.338-0.91-20.292,11.985-23.624,19.672
			c-0.26,0.603-2.983,9.564-3.361,11.224c-0.045-0.489-0.146-0.99-0.185-1.478c-0.725-8.782-0.325-17.381,0.445-25.413
			c0.438-4.669,1.118-9.106,1.875-13.409c2.968,0.25,16.539,1.244,22.696-0.927c5.901-2.081,12.841-6.373,14.849-12.683
			c1.969-6.179-1.258-13.136-7.872-14.527c-9.182-1.93-21.486,9.684-25.642,16.959c-0.226,0.395-2.076,4.671-3.381,7.805
			c0.371-1.937,0.718-3.942,1.112-5.79c1.459-6.943,3.224-13.211,4.832-18.75c0.939-3.141,1.85-5.964,2.733-8.597
			c3.038-1.272,15.223-6.558,19.608-11.236c4.276-4.567,8.46-11.572,7.336-18.1c-1.102-6.392-7.172-11.079-13.682-9.264
			c-9.038,2.516-14.608,18.494-14.943,26.866c-0.028,0.724,0.819,12.09,0.978,12.025c0,0,0.148-0.061,0.184-0.076
			c-0.9,2.516-1.833,5.223-2.795,8.202c-1.732,5.515-3.638,11.76-5.253,18.699c-1.634,6.93-3.213,14.505-4.157,22.633
			c-0.957,8.146-1.546,16.764-1.006,25.723c0.005,0.101,0.026,0.206,0.031,0.307c-0.971-2.572-3.929-9.671-4.218-10.188
			c-4.074-7.32-16.248-19.072-25.452-17.243c-6.628,1.319-9.932,8.238-8.033,14.44c1.941,6.332,8.83,10.699,14.709,12.846
			c6.629,2.421,21.885,1.245,23.099,1.15c0.592,8.526,1.894,17.228,3.694,25.961c1.025,4.995,2.213,9.994,3.467,14.991
			c-0.912-2.197-1.743-4.154-1.89-4.414c-4.075-7.322-16.248-19.07-25.451-17.242c-6.63,1.317-9.933,8.238-8.033,14.438
			c1.939,6.333,8.83,10.7,14.707,12.847c5.965,2.177,18.993,1.438,22.437,1.196c0.501,1.911,0.981,3.827,1.489,5.737
			c2.438,9.164,4.911,18.297,7.061,27.331c0.761,3.183,1.391,6.345,2.033,9.506c-0.811-1.948-1.512-3.584-1.644-3.821
			c-4.076-7.321-16.249-19.071-25.45-17.244c-6.631,1.319-9.935,8.238-8.035,14.441c1.938,6.331,8.831,10.699,14.709,12.845
			c5.69,2.079,17.723,1.504,21.818,1.235c0.561,3.258,1.127,6.52,1.524,9.703c0.221,2.18,0.585,4.261,0.687,6.463
			c0.145,2.175,0.29,4.332,0.433,6.466c0.122,4.121,0.277,8.371,0.297,12.393c0.035,2.798,0.015,5.465,0.006,8.15
			c-0.72-3.177-2.258-9.367-2.444-9.87c-1.94-5.217-7.123-12.892-13.13-17.346c-0.281-0.772-0.628-1.516-1.051-2.224
			c-3.324-5.568-10.672-7.761-16.098-3.728c-7.53,5.596-6.984,22.509-4.288,30.439c0.159,0.469,2.451,5.352,3.949,8.41
			c-1.155-1.663-2.254-3.291-3.463-4.989c-2.367-3.373-4.828-6.669-7.462-10.229c-1.332-1.673-2.679-3.361-4.039-5.069
			c-1.311-1.72-2.916-3.371-4.381-5.081c-3.48-3.891-7.196-7.666-11.023-11.385c2.951-2.081,13.316-9.615,16.533-15.016
			c3.204-5.375,5.789-13.114,3.296-19.249c-2.443-6.008-9.372-9.29-15.346-6.125c-8.291,4.391-10.315,21.191-8.852,29.44
			c0.092,0.515,1.807,6.315,2.81,9.484c-2.317-2.217-4.62-4.443-7.039-6.61c-6.978-6.259-14.236-12.377-21.452-18.51
			c-2.211-1.878-4.391-3.775-6.581-5.666c1.058-0.73,13.573-9.42,17.177-15.468c3.203-5.375,5.789-13.113,3.295-19.249
			c-2.442-6.007-9.372-9.289-15.345-6.124c-8.291,4.391-10.315,21.19-8.853,29.439c0.111,0.622,2.591,8.965,3.325,11.055
			c-4.82-4.166-9.587-8.364-14.118-12.693c-6.259-5.964-12.07-12.162-17.256-18.582c0.494-0.34,13.596-9.351,17.288-15.545
			c3.203-5.375,5.789-13.113,3.294-19.249c-2.441-6.008-9.372-9.288-15.346-6.124c-8.291,4.391-10.314,21.19-8.851,29.439
			c0.115,0.648,2.788,9.624,3.389,11.214c-0.308-0.382-0.669-0.743-0.971-1.128c-5.449-6.928-9.859-14.32-13.648-21.444
			c-2.21-4.134-4.09-8.21-5.831-12.217c2.612-1.428,14.48-8.087,18.417-13.294c3.775-4.993,7.195-12.399,5.39-18.77
			c-1.768-6.24-8.297-10.263-14.58-7.774c-8.723,3.454-12.579,19.93-12.032,28.289c0.03,0.455,0.844,5.043,1.485,8.376
			c-0.758-1.821-1.576-3.685-2.266-5.443c-2.612-6.596-4.599-12.797-6.314-18.303c-0.95-3.14-1.746-5.997-2.462-8.678
			c1.831-2.739,9.078-13.869,10.154-20.19c1.05-6.169,0.672-14.318-3.866-19.141c-4.445-4.724-12.093-5.284-16.522-0.182
			c-6.15,7.086-1.979,23.485,2.357,30.653c0.376,0.618,7.353,9.63,7.451,9.49c0,0,0.089-0.134,0.11-0.165
			c0.637,2.593,1.353,5.368,2.195,8.382c1.597,5.555,3.453,11.816,5.934,18.495c2.461,6.681,5.322,13.871,9.02,21.171
			c3.697,7.321,7.958,14.836,13.351,22.009c0.061,0.081,0.135,0.158,0.197,0.239c-2.23-1.609-8.613-5.896-9.141-6.171
			c-7.436-3.859-24.073-6.942-30.74-0.341c-4.802,4.757-3.741,12.352,1.265,16.476c5.113,4.211,13.268,4.052,19.354,2.601
			c6.865-1.638,18.943-11.034,19.9-11.786c5.2,6.785,11.085,13.326,17.406,19.616c3.609,3.601,7.357,7.115,11.159,10.591
			c-1.972-1.328-3.745-2.501-4.01-2.64c-7.438-3.859-24.075-6.941-30.739-0.34c-4.805,4.756-3.741,12.349,1.263,16.474
			c5.109,4.213,13.27,4.054,19.355,2.601c6.177-1.473,16.633-9.278,19.374-11.38c1.473,1.319,2.928,2.651,4.406,3.963
			c7.089,6.299,14.189,12.553,20.967,18.902c2.39,2.235,4.66,4.525,6.941,6.809c-1.753-1.179-3.239-2.156-3.482-2.282
			c-7.436-3.857-24.073-6.942-30.739-0.34c-4.803,4.757-3.741,12.351,1.264,16.474c5.113,4.212,13.269,4.054,19.355,2.601
			c5.895-1.406,15.611-8.523,18.879-11.005c2.265,2.408,4.538,4.816,6.624,7.252c1.387,1.696,2.842,3.23,4.137,5.011
			c1.323,1.735,2.631,3.454,3.928,5.156c2.376,3.367,4.85,6.828,7.084,10.173c1.573,2.314,3.029,4.549,4.502,6.795
			c-2.352-2.253-7.051-6.568-7.485-6.884c-6.764-4.941-22.742-10.508-30.333-4.993c-5.467,3.974-5.568,11.641-1.244,16.475
			c4.413,4.938,12.5,6.018,18.736,5.504c6.866-0.567,19.737-7.672,21.34-8.571C535.408,447.387,537.731,451.034,539.867,454.511z"/>
		<path d="M547.56,249.018c0.169,0.031-1.267-11.277-1.438-11.979c-1.997-8.136-10.638-22.684-19.997-23.351
			c-6.741-0.48-11.754,5.323-11.559,11.805c0.197,6.618,5.69,12.652,10.793,16.274C531.35,246.02,547.548,249.014,547.56,249.018z"
			/>
	</g>
</g>
<g id="Stairs">
	<g>
		<g>
			
				<rect x="55.335" y="338.491" style="fill:#FFFFFF;stroke:#263238;stroke-linecap:round;stroke-linejoin:round;stroke-miterlimit:10;" width="115.865" height="22.672"/>
			
				<rect x="87.421" y="314.666" style="fill:#FFFFFF;stroke:#263238;stroke-linecap:round;stroke-linejoin:round;stroke-miterlimit:10;" width="115.865" height="23.825"/>
			
				<rect x="119.507" y="290.841" style="fill:#FFFFFF;stroke:#263238;stroke-linecap:round;stroke-linejoin:round;stroke-miterlimit:10;" width="115.865" height="23.825"/>
			
				<rect x="151.592" y="267.016" style="fill:#FFFFFF;stroke:#263238;stroke-linecap:round;stroke-linejoin:round;stroke-miterlimit:10;" width="115.865" height="23.825"/>
			<polygon style="fill:#263238;stroke:#263238;stroke-linecap:round;stroke-linejoin:round;stroke-miterlimit:10;" points="
				300.731,455.466 300.731,267.016 267.457,267.016 267.457,290.841 235.371,290.841 235.371,314.666 203.286,314.666 
				203.286,338.491 171.2,338.491 171.2,455.466 			"/>
		</g>
		<g>
			
				<rect x="184.866" y="432.793" style="fill:#FFFFFF;stroke:#263238;stroke-linecap:round;stroke-linejoin:round;stroke-miterlimit:10;" width="115.865" height="22.672"/>
			
				<rect x="152.781" y="408.969" transform="matrix(-1 -1.224647e-16 1.224647e-16 -1 421.4258 841.7619)" style="fill:#FFFFFF;stroke:#263238;stroke-linecap:round;stroke-linejoin:round;stroke-miterlimit:10;" width="115.865" height="23.825"/>
			
				<rect x="120.695" y="385.143" transform="matrix(-1 -1.224647e-16 1.224647e-16 -1 357.2545 794.112)" style="fill:#FFFFFF;stroke:#263238;stroke-linecap:round;stroke-linejoin:round;stroke-miterlimit:10;" width="115.865" height="23.825"/>
			
				<rect x="88.609" y="361.319" transform="matrix(-1 -1.224647e-16 1.224647e-16 -1 293.0834 746.4621)" style="fill:#FFFFFF;stroke:#263238;stroke-linecap:round;stroke-linejoin:round;stroke-miterlimit:10;" width="115.865" height="23.825"/>
			<polygon style="fill:#263238;stroke:#263238;stroke-linecap:round;stroke-linejoin:round;stroke-miterlimit:10;" points="
				55.335,455.466 55.335,361.319 88.609,361.319 88.609,385.143 120.695,385.143 120.695,408.969 152.781,408.969 152.781,432.793 
				184.866,432.793 184.866,455.466 			"/>
		</g>
	</g>
</g>
<g id="Character_2">
	<g>
		<path style="fill:#FFFFFF;stroke:#263238;stroke-linecap:round;stroke-linejoin:round;stroke-miterlimit:10;" d="M648.542,312.312
			l-7.531,24.696l-16.723-12.846c0,0-0.664-3.987-0.997-4.762c-0.332-0.775-2.326-3.101-2.769-3.987
			c-0.443-0.886-1.107-0.111-1.107,0.554c0,0.664,1.55,2.879,1.55,2.879l-0.775,0.775l-6.199-2.947
			c-0.305-0.145-0.67-0.01-0.807,0.299l0,0c-0.113,0.254-0.037,0.553,0.184,0.721l3.389,2.591l-0.443,0.886l-5.65-2.32
			c-0.299-0.123-0.639,0.033-0.741,0.339l0,0c-0.084,0.251,0.02,0.526,0.249,0.659l5.145,2.984l-3.355,0.652
			c-0.335,0.065-0.536,0.41-0.428,0.733l0,0c0.077,0.231,0.293,0.386,0.536,0.386h3.469l-2.99,1.107c0,0,0.388,0.867,0.989,0.838
			l3.551-0.173l5.205,0.332c0,0,16.938,17.752,17.495,18.289s3.879,1.756,4.544,1.091c0.664-0.665,8.085-9.635,8.085-9.635
			l-1.108-23.257C651.311,313.198,650.203,310.983,648.542,312.312z"/>
		<path style="fill:#263238;stroke:#263238;stroke-linecap:round;stroke-linejoin:round;stroke-miterlimit:10;" d="M652.544,283.832
			c0,0-3.238,0.216-4.75-4.966c-1.511-5.181,2.375-6.693,4.534-7.124c2.159-0.432,2.591-5.181,6.261-5.829
			c3.67-0.648,7.556,2.375,8.42,4.965c0.863,2.591,6.477-1.295,9.715,2.159c3.238,3.454,3.022,10.147,3.022,12.522
			c0,2.375,7.34,2.807,7.34,8.42c0,5.613-0.863,8.42-0.432,9.283c0.432,0.864,3.67,18.542,3.67,18.542h-40.372
			c0,0-1.295-12.928,0.216-16.167c1.511-3.238,2.807-3.454,3.454-6.477c0.648-3.022,0-7.772-0.432-9.931
			C652.759,287.07,652.544,283.832,652.544,283.832z"/>
		<polygon style="fill:#263238;stroke:#263238;stroke-linecap:round;stroke-linejoin:round;stroke-miterlimit:10;" points="
			660.316,306.501 648.226,306.717 650.601,336.294 673.485,338.021 684.28,307.364 671.326,306.285 		"/>
		<path style="fill:#FFFFFF;stroke:#263238;stroke-linecap:round;stroke-linejoin:round;stroke-miterlimit:10;" d="M656.43,276.924
			c0,0-3.238,4.534-3.886,6.909c-0.648,2.375-1.194,5.226-0.546,8.465c0.648,3.238,2.489,8.591,3.784,9.022
			c1.295,0.432,4.75,0,4.75,0l-0.216,5.181h-1.727l0.216,7.772l8.204,0.432l4.318-8.42l-2.159-0.432l-1.511-12.737
			c0,0,2.159-2.375,2.375-4.102c0.216-1.727,0.216-2.591,0.216-2.591s-2.591,1.943-4.75,0c-2.159-1.943-2.807-4.102-3.454-6.261
			c-0.648-2.159-1.943-3.886-3.023-3.886C657.941,276.276,656.43,276.924,656.43,276.924z"/>
		<polygon style="fill:#263238;stroke:#263238;stroke-linecap:round;stroke-linejoin:round;stroke-miterlimit:10;" points="
			660.531,301.319 664.202,300.024 660.747,303.91 		"/>
		<path style="fill:#BABABA;stroke:#263238;stroke-linecap:round;stroke-linejoin:round;stroke-miterlimit:10;" d="M650.601,336.294
			l-2.375,7.556c0,0-8.636,9.283-10.363,26.555c-1.727,17.271,1.079,34.327,1.943,41.235c0.864,6.908,9.197,37.448,9.197,37.448
			h5.613c0,0-2.073-28.381-2.073-31.188c0-2.807,0-15.76,0-15.76l15.871,43.643l5.181,0.216c0,0-2.075-20.608-3.37-29.027
			c-1.295-8.42-3.65-16.343-3.65-16.343s11.442-22.669,11.442-38.213s-3.886-18.998-3.886-18.998l-0.648-5.397L650.601,336.294z"/>
		<path style="fill:none;stroke:#263238;stroke-linecap:round;stroke-linejoin:round;stroke-miterlimit:10;" d="M657.532,360.023
			c0.75-3.368,1.272-5.595,1.272-5.595"/>
		<path style="fill:none;stroke:#263238;stroke-linecap:round;stroke-linejoin:round;stroke-miterlimit:10;" d="M652.544,402.141
			c0,0-0.864-4.318-0.216-13.601c0.382-5.475,2.566-16.357,4.294-24.364"/>
		<path style="fill:#FFFFFF;stroke:#263238;stroke-linecap:round;stroke-linejoin:round;stroke-miterlimit:10;" d="M649.003,449.088
			c0,0-10.147,4.75-10.147,5.829c0,1.079,16.192,0,16.192,0s0.648-1.727,0.432-3.238c-0.216-1.511-0.864-2.591-0.864-2.591H649.003z
			"/>
		<path style="fill:#FFFFFF;stroke:#263238;stroke-linecap:round;stroke-linejoin:round;stroke-miterlimit:10;" d="M668.415,445.784
			c0,0-4.75,6.045-6.261,7.556c-1.511,1.511-1.079,2.591,0.216,2.591c1.295,0,8.636-0.432,9.931-1.295
			c1.295-0.864,1.943-1.727,1.943-1.727L673.596,446L668.415,445.784z"/>
		<path style="fill:#FFFFFF;stroke:#263238;stroke-linecap:round;stroke-linejoin:round;stroke-miterlimit:10;" d="M682.984,311.25
			c0,0,1.943,28.714,0.216,31.736c-1.727,3.022-6.693,1.295-7.124,0s0.432-12.522,0.432-12.522L682.984,311.25z"/>
		<g>
			
				<rect x="549.946" y="248.447" transform="matrix(0.9896 -0.1441 0.1441 0.9896 -41.1211 89.356)" style="fill:#92E3A9;stroke:#263238;stroke-linecap:round;stroke-linejoin:round;stroke-miterlimit:10;" width="92.475" height="160.106"/>
			<path style="fill:#FFFFFF;stroke:#263238;stroke-linecap:round;stroke-linejoin:round;stroke-miterlimit:10;" d="
				M624.821,266.561c-6.097,0.888-11.76-3.335-12.648-9.432c-0.068-0.464-0.096-0.923-0.106-1.379l-52.543,7.653
				c0.121,0.44,0.225,0.889,0.292,1.352c0.888,6.097-3.335,11.76-9.432,12.648c-0.231,0.034-0.459,0.046-0.688,0.065l16.488,113.204
				c0.225-0.047,0.447-0.1,0.678-0.134c6.097-0.888,11.76,3.335,12.648,9.432c0.068,0.463,0.096,0.923,0.106,1.379l52.543-7.653
				c-0.121-0.44-0.225-0.889-0.292-1.352c-0.888-6.097,3.335-11.76,9.432-12.648c0.464-0.067,0.923-0.096,1.379-0.106
				l-16.505-113.322C625.733,266.39,625.285,266.494,624.821,266.561z M598.819,346.597c-9.995,1.456-19.277-5.466-20.733-15.461
				c-1.456-9.995,5.467-19.277,15.461-20.733c9.995-1.456,19.277,5.466,20.733,15.461
				C615.736,335.859,608.814,345.141,598.819,346.597z"/>
		</g>
		<g>
			
				<rect x="542.076" y="255.172" transform="matrix(0.966 -0.2585 0.2585 0.966 -66.6508 163.4395)" style="fill:#92E3A9;stroke:#263238;stroke-linecap:round;stroke-linejoin:round;stroke-miterlimit:10;" width="92.475" height="160.106"/>
			<path style="fill:#FFFFFF;stroke:#263238;stroke-linecap:round;stroke-linejoin:round;stroke-miterlimit:10;" d="M609.54,270.371
				c-5.952,1.592-12.069-1.942-13.661-7.894c-0.121-0.452-0.203-0.905-0.266-1.358l-51.293,13.723
				c0.171,0.423,0.327,0.857,0.448,1.309c1.592,5.952-1.942,12.069-7.894,13.661c-0.225,0.06-0.45,0.099-0.676,0.145l29.566,110.512
				c0.218-0.073,0.433-0.152,0.658-0.212c5.953-1.592,12.069,1.942,13.661,7.894c0.121,0.452,0.203,0.905,0.266,1.358l51.293-13.723
				c-0.171-0.423-0.327-0.857-0.448-1.309c-1.593-5.952,1.942-12.069,7.894-13.661c0.452-0.121,0.905-0.203,1.358-0.266
				l-29.597-110.626C610.425,270.095,609.992,270.25,609.54,270.371z M593.04,352.892c-9.757,2.61-19.783-3.183-22.393-12.94
				c-2.61-9.757,3.183-19.783,12.94-22.393c9.757-2.61,19.783,3.183,22.393,12.94C608.591,340.255,602.797,350.281,593.04,352.892z"
				/>
		</g>
		<path style="fill:#FFFFFF;stroke:#263238;stroke-linecap:round;stroke-linejoin:round;stroke-miterlimit:10;" d="M678.019,338.237
			l-32.168-0.648c0,0-6.477-2.159-7.556-2.159c-0.841,0-3.383,0.785-4.467,1.133c-0.286,0.092-0.455,0.382-0.396,0.676l0,0
			c0.063,0.314,0.365,0.521,0.681,0.465l3.102-0.548l0.864,0.648l-6.228,4.018c-0.263,0.169-0.351,0.512-0.203,0.787l0,0
			c0.151,0.28,0.494,0.393,0.782,0.258l4.683-2.2l0.157,1.181l-5.009,2.61c-0.33,0.172-0.475,0.565-0.337,0.91l0,0
			c0.132,0.33,0.484,0.515,0.831,0.437l1.839-0.415l0,0c0.43,0.526,1.131,0.747,1.786,0.564l3.41-0.957l-2.163,1.382
			c-0.339,0.216-0.38,0.695-0.084,0.967l0,0c0.21,0.192,0.524,0.215,0.759,0.054l4.323-2.954l3.7-2.362l32.594,5.747
			c0,0,2.755,0.236,3.228-0.315c0.472-0.551,1.417-5.747,1.496-7.086"/>
		
			<line style="fill:#FFFFFF;stroke:#263238;stroke-linecap:round;stroke-linejoin:round;stroke-miterlimit:10;" x1="634.594" y1="345.392" x2="639.003" y2="343.739"/>
		<path style="fill:#263238;" d="M655.431,286.664c0,0.741-0.384,1.341-0.858,1.341s-0.858-0.6-0.858-1.341
			c0-0.741,0.384-1.341,0.858-1.341S655.431,285.923,655.431,286.664z"/>
		<path style="fill:#263238;" d="M660.259,287.683c0,0.741-0.384,1.341-0.858,1.341c-0.474,0-0.858-0.6-0.858-1.341
			c0-0.741,0.384-1.341,0.858-1.341C659.875,286.342,660.259,286.943,660.259,287.683z"/>
		<path style="fill:none;stroke:#263238;stroke-linecap:round;stroke-linejoin:round;stroke-miterlimit:10;" d="M653.5,283.606
			c0,0,0.858-1.073,2.575,0.107"/>
		<path style="fill:none;stroke:#263238;stroke-linecap:round;stroke-linejoin:round;stroke-miterlimit:10;" d="M658.435,284.25
			c0,0,1.824-0.858,3.111,1.287"/>
		<path style="fill:none;stroke:#263238;stroke-linecap:round;stroke-linejoin:round;stroke-miterlimit:10;" d="M656.289,286.718
			c0,0,0.215,1.18-0.107,1.931c-0.322,0.751-1.824,2.146-1.717,2.468s0.858,0.536,0.858,0.536"/>
		<path style="fill:none;stroke:#263238;stroke-linecap:round;stroke-linejoin:round;stroke-miterlimit:10;" d="M654.358,294.228
			c0,0,3.004,1.395,5.365-0.536"/>
	</g>
</g>
<g id="Character_1">
	<g>
		<g>
			
				<circle style="fill:#FFFFFF;stroke:#263238;stroke-linecap:round;stroke-linejoin:round;stroke-miterlimit:10;" cx="320.618" cy="178.005" r="34.462"/>
			
				<circle style="fill:#FFFFFF;stroke:#263238;stroke-linecap:round;stroke-linejoin:round;stroke-miterlimit:10;" cx="324.099" cy="178.005" r="34.462"/>
			
				<ellipse transform="matrix(0.7071 -0.7071 0.7071 0.7071 -30.9421 281.3094)" style="fill:#FFFFFF;stroke:#263238;stroke-linecap:round;stroke-linejoin:round;stroke-miterlimit:10;" cx="324.1" cy="178.005" rx="29.241" ry="29.241"/>
			<g>
				<path style="fill:#FFFFFF;stroke:#263238;stroke-linecap:round;stroke-linejoin:round;stroke-miterlimit:10;" d="
					M324.432,198.566v-3.848c-2.841-0.111-4.966-1.021-6.372-2.731c-1.407-1.71-2.166-4.262-2.276-7.656l5.835-0.992
					c0.055,1.379,0.2,2.531,0.434,3.455c0.235,0.924,0.586,1.613,1.056,2.068c0.468,0.456,1.076,0.683,1.82,0.683
					c0.855,0,1.441-0.275,1.759-0.828c0.316-0.551,0.475-1.185,0.475-1.903c0-1.407-0.324-2.586-0.972-3.538
					c-0.649-0.953-1.539-1.91-2.669-2.876l-3.517-3.021c-0.801-0.745-1.517-1.503-2.152-2.276c-0.635-0.772-1.138-1.655-1.51-2.648
					c-0.372-0.993-0.559-2.165-0.559-3.518c0-2.592,0.737-4.614,2.214-6.062c1.475-1.448,3.455-2.269,5.938-2.462v-3.683h1.987
					v3.683c1.49,0.083,2.711,0.421,3.662,1.014c0.952,0.594,1.676,1.338,2.172,2.234c0.497,0.896,0.855,1.877,1.076,2.938
					c0.22,1.062,0.358,2.09,0.414,3.083l-5.918,0.869c-0.028-1.021-0.11-1.924-0.248-2.711c-0.139-0.786-0.387-1.399-0.745-1.842
					c-0.359-0.441-0.911-0.648-1.655-0.62c-0.773,0.028-1.359,0.33-1.759,0.911c-0.4,0.579-0.6,1.227-0.6,1.945
					c0,1.269,0.303,2.289,0.911,3.061c0.606,0.773,1.296,1.518,2.068,2.234l3.435,2.98c0.911,0.827,1.752,1.724,2.524,2.689
					c0.772,0.966,1.393,2.035,1.862,3.207c0.469,1.173,0.704,2.517,0.704,4.035c0,1.462-0.297,2.793-0.89,3.993
					c-0.594,1.2-1.448,2.172-2.565,2.918c-1.118,0.744-2.435,1.186-3.952,1.324v3.89H324.432z"/>
			</g>
		</g>
		<g>
			<path style="fill:#263238;stroke:#263238;stroke-linecap:round;stroke-linejoin:round;stroke-miterlimit:10;" d="M237.54,173.754
				l1.089,50.514l-0.436,35.926l5.879-0.871c0,0,6.314-33.749,6.314-35.708s3.484-26.999,3.484-26.999l6.532,32.442l3.39,31.136
				l5.879-0.871c0,0,0.747-33.749,0.747-39.845c0-6.097-0.297-45.302-0.297-45.302l-18.428-4.777L237.54,173.754z"/>
			<path style="fill:#FFFFFF;stroke:#263238;stroke-linecap:round;stroke-linejoin:round;stroke-miterlimit:10;" d="
				M244.072,259.323c0,0,8.709,5.661,7.403,6.967c-1.306,1.306-8.492,0-10.451-0.218c-1.96-0.218-2.613-0.653-2.613-0.653
				l-0.218-5.226L244.072,259.323z"/>
			<path style="fill:#FFFFFF;stroke:#263238;stroke-linecap:round;stroke-linejoin:round;stroke-miterlimit:10;" d="
				M269.671,259.323c0,0,8.709,5.661,7.403,6.967s-8.492,0-10.451-0.218c-1.96-0.218-2.613-0.653-2.613-0.653l-0.218-5.226
				L269.671,259.323z"/>
			<path style="fill:#FFFFFF;stroke:#263238;stroke-linecap:round;stroke-linejoin:round;stroke-miterlimit:10;" d="
				M314.563,142.508l7.851-1.804c0,0,7.533,4.032,8.169,4.562s-0.637,0.637-2.016,0.637c-1.379,0-6.366-1.273-6.366-1.273
				s3.289,0.955,2.758,1.485c-0.53,0.531-1.591,0.637-2.122,0.531c-0.53-0.106-2.546-0.424-2.546-0.424s-3.501-0.106-4.562-0.318
				c-1.061-0.212-1.061-0.212-1.061-0.212L314.563,142.508z"/>
			<path style="fill:#92E3A9;stroke:#263238;stroke-linecap:round;stroke-linejoin:round;stroke-miterlimit:10;" d="
				M263.784,111.379c0,0-17.86,9.986-20.164,12.867c-2.305,2.881-3.073,17.284-4.609,27.462
				c-1.536,10.178-1.728,22.853-1.728,22.853s12.867,1.728,19.972,1.536c7.105-0.192,12.867-1.92,12.867-1.92
				s2.497-12.867,3.073-14.787c0.576-1.92,5.185-24.965,5.185-24.965l14.211,11.33l21.944,0.006l0.029-3.252
				c0,0-17.364-4.052-17.556-4.628c-0.192-0.576-14.787-21.508-19.204-24.005C273.386,111.379,266.857,109.075,263.784,111.379z"/>
			<path style="fill:#FFFFFF;stroke:#263238;stroke-linecap:round;stroke-linejoin:round;stroke-miterlimit:10;" d="M265.512,105.81
				l-3.265,7.874c0,0-1.536,0.384-1.152,3.457c0.384,3.073,4.225,11.714,5.569,11.522c1.344-0.192,5.569-11.714,5.569-11.714
				L265.512,105.81z"/>
			<polygon style="fill:#263238;stroke:#263238;stroke-linecap:round;stroke-linejoin:round;stroke-miterlimit:10;" points="
				267.347,114.499 268.709,124.992 271.273,119.829 			"/>
			<path style="fill:#263238;stroke:#263238;stroke-linecap:round;stroke-linejoin:round;stroke-miterlimit:10;" d="
				M283.756,101.201c0,0,1.728,1.728,4.609,0.384c2.88-1.344,4.225-4.225,1.728-6.529c-2.496-2.304-3.841,0.192-4.609-2.881
				c-0.768-3.073-3.841-5.185-6.529-4.417c-2.689,0.768-1.728,1.728-3.649,2.304c-1.92,0.576-4.417-1.152-6.913,1.344
				c-2.496,2.496-2.881,8.45-3.457,11.138c-0.576,2.689,1.92,3.457,4.033,3.265c2.112-0.192,3.841-4.609,5.569-5.953
				S283.756,101.201,283.756,101.201z"/>
			<g>
				<path style="fill:#FFFFFF;stroke:#263238;stroke-linecap:round;stroke-linejoin:round;stroke-miterlimit:10;" d="
					M265.128,106.578c0,0,0.192,4.225,0.96,5.569c0.768,1.344,4.033,7.682,5.185,7.682c1.152,0,2.881,0,3.649-0.384
					c0.768-0.384,3.841-4.417,5.761-7.874c1.92-3.457,3.073-10.37,3.073-10.37s-9.218-5.761-9.794-4.609
					c-0.576,1.152-0.384,2.881-1.344,3.073c-0.96,0.192-3.073,0.384-3.073,0.384s0.576,2.689-0.192,3.265
					c-0.768,0.576-2.689-0.576-2.689-0.576S264.36,103.122,265.128,106.578z"/>
				<path style="fill:#263238;" d="M275.814,107.261c-0.172,0.734-0.641,1.252-1.049,1.157c-0.408-0.095-0.599-0.768-0.428-1.502
					c0.172-0.734,0.641-1.252,1.049-1.157C275.794,105.854,275.986,106.527,275.814,107.261z"/>
				<path style="fill:#263238;" d="M280.827,108.662c-0.172,0.734-0.641,1.252-1.049,1.157c-0.408-0.095-0.599-0.768-0.428-1.502
					c0.172-0.734,0.641-1.252,1.049-1.156C280.807,107.255,280.998,107.928,280.827,108.662z"/>
				<path style="fill:none;stroke:#263238;stroke-linecap:round;stroke-linejoin:round;stroke-miterlimit:10;" d="M273.711,104.51
					c0,0,0.758-0.607,3.033,0"/>
				<path style="fill:none;stroke:#263238;stroke-linecap:round;stroke-linejoin:round;stroke-miterlimit:10;" d="M280.081,105.875
					c0,0,1.365,0.152,1.972,1.213"/>
				<polyline style="fill:none;stroke:#263238;stroke-linecap:round;stroke-linejoin:round;stroke-miterlimit:10;" points="
					278.412,108.605 277.654,112.7 275.227,112.397 				"/>
				<path style="fill:none;stroke:#263238;stroke-linecap:round;stroke-linejoin:round;stroke-miterlimit:10;" d="M274.469,114.823
					c0,0-2.275,0-3.033-3.185"/>
			</g>
			<path style="fill:#FFFFFF;stroke:#263238;stroke-linecap:round;stroke-linejoin:round;stroke-miterlimit:10;" d="
				M267.625,104.466c0,0-0.384-4.417-2.112-4.417c-1.728,0-3.265,4.033-2.305,5.761c0.96,1.728,3.457,2.305,3.457,2.305"/>
			<path style="fill:#92E3A9;stroke:#263238;stroke-linecap:round;stroke-linejoin:round;stroke-miterlimit:10;" d="
				M252.299,127.687l3.334,27.606l27.961,9.566l0.432,3.242l-37.392-5.126c0,0-5.306-27.294-6.037-31.065
				c-0.73-3.771,1.215-7.864,3.903-10.145c2.688-2.281,6.911-2.419,6.911-2.419"/>
			<path style="fill:#FFFFFF;stroke:#263238;stroke-linecap:round;stroke-linejoin:round;stroke-miterlimit:10;" d="
				M283.594,164.859c0,0,4.452-1.253,5.017-1.363c0.566-0.109,3.564,2.244,4.166,2.323c0.602,0.079,1.618,0.273,1.575,1.064
				c-0.042,0.791-0.31,1.429-1.776,0.931c-1.466-0.499-2.418-1.007-2.418-1.007s3.719,3.689,4.358,3.956
				c0.367,0.154,1.014,0.742,1.497,1.214c0.32,0.313,0.219,0.847-0.191,1.028c-0.908,0.4-2.429,0.966-3.812,0.982
				c-2.147,0.025-7.986-5.886-7.986-5.886L283.594,164.859z"/>
		</g>
	</g>
</g>
<g id="Piggy_Bank">
	<g>
		<g>
			<path style="fill:#92E3A9;stroke:#263238;stroke-linecap:round;stroke-linejoin:round;stroke-miterlimit:10;" d="
				M458.196,246.755c0,0,28.626-16.135,32.79-14.573c4.164,1.561-3.643,33.31-4.684,35.392
				C485.261,269.656,458.196,246.755,458.196,246.755z"/>
			<path style="fill:none;stroke:#263238;stroke-linecap:round;stroke-linejoin:round;stroke-miterlimit:10;" d="M489.425,236.346
				c0,0-1.242,1.932-2.821,4.715c-2.759,4.862-6.547,12.322-6.547,16.624c0,6.766,4.164,6.246,5.205,1.041l3.643-15.094"/>
		</g>
		
			<ellipse style="fill:#92E3A9;stroke:#263238;stroke-linecap:round;stroke-linejoin:round;stroke-miterlimit:10;" cx="248.864" cy="312.944" rx="14.208" ry="18.497"/>
		
			<ellipse style="fill:#92E3A9;stroke:#263238;stroke-linecap:round;stroke-linejoin:round;stroke-miterlimit:10;" cx="377.662" cy="331.064" rx="135.401" ry="114.631"/>
		<path style="fill:#92E3A9;stroke:#263238;stroke-width:2;stroke-linecap:round;stroke-linejoin:round;stroke-miterlimit:10;" d="
			M465.598,410.082c-22.958,18.319-53.898,29.546-87.936,29.546c-60.755,0-111.642-35.77-124.881-83.791"/>
		<path style="fill:#92E3A9;stroke:#263238;stroke-width:2;stroke-linecap:round;stroke-linejoin:round;stroke-miterlimit:10;" d="
			M249.497,334.665c-0.046-1.196-0.069-2.396-0.069-3.601c0-13.354,2.848-26.145,8.058-37.961"/>
		<path style="fill:none;stroke:#263238;stroke-width:5;stroke-linecap:round;stroke-linejoin:round;stroke-miterlimit:10;" d="
			M336.989,229.048c12.77-3.648,26.449-5.626,40.673-5.626c14.283,0,28.016,1.994,40.832,5.671"/>
		<path style="fill:#92E3A9;stroke:#263238;stroke-linecap:round;stroke-linejoin:round;stroke-miterlimit:10;" d="M505.559,295.68
			c0,0,17.176-5.725,19.778-2.602c2.602,3.123,2.602,39.556,0.52,46.322c-2.082,6.766-16.135,5.205-26.024-2.082
			s-8.848-17.696-8.848-17.696"/>
		
			<line style="fill:none;stroke:#263238;stroke-linecap:round;stroke-linejoin:round;stroke-miterlimit:10;" x1="495.15" y1="318.06" x2="484.741" y2="319.622"/>
		<path style="fill:#263238;stroke:#263238;stroke-linecap:round;stroke-linejoin:round;stroke-miterlimit:10;" d="M492.548,329.511
			c0,0-2.602,18.217,0.52,18.737c3.123,0.52,8.328-8.848,8.328-8.848S494.109,331.072,492.548,329.511z"/>
		<path style="fill:#263238;" d="M483.081,286.836c0.965,3.759,0.393,7.153-1.277,7.582s-3.807-2.27-4.772-6.029
			c-0.965-3.759-0.393-7.153,1.277-7.582C479.979,280.378,482.116,283.077,483.081,286.836z"/>
		<g>
			<path style="fill:#92E3A9;stroke:#263238;stroke-linecap:round;stroke-linejoin:round;stroke-miterlimit:10;" d="
				M428.388,236.403c0,0,32.752-32.752,39.142-26.361c6.391,6.391,3.994,34.349,3.994,38.343s0,11.184,0,11.184"/>
			<path style="fill:none;stroke:#263238;stroke-linecap:round;stroke-linejoin:round;stroke-miterlimit:10;" d="M468.606,217.088
				c0,0,0.52-8.328-3.123-3.123c-3.643,5.205-14.053,41.117-10.93,45.281c3.123,4.164,11.971,2.082,14.053-5.725
				c2.082-7.807,0.52-30.188,0.52-30.188"/>
		</g>
		<polyline style="fill:#92E3A9;stroke:#263238;stroke-linecap:round;stroke-linejoin:round;stroke-miterlimit:10;" points="
			289.344,407.038 307.259,455.466 327.037,455.466 335.885,430.483 		"/>
		<polyline style="fill:#92E3A9;stroke:#263238;stroke-linecap:round;stroke-linejoin:round;stroke-miterlimit:10;" points="
			454.553,413.307 437.377,455.466 417.599,455.466 408.751,430.483 		"/>
		<g>
			<path style="fill:#263238;" d="M371.055,387.837v-10.104c-7.461-0.292-13.039-2.681-16.732-7.172
				c-3.696-4.491-5.688-11.192-5.977-20.104l15.321-2.606c0.145,3.621,0.525,6.647,1.141,9.073c0.616,2.426,1.54,4.237,2.772,5.431
				c1.229,1.197,2.825,1.794,4.78,1.794c2.244,0,3.784-0.723,4.62-2.174c0.83-1.446,1.248-3.112,1.248-4.997
				c0-3.696-0.852-6.792-2.552-9.29c-1.703-2.501-4.041-5.016-7.009-7.552l-9.237-7.932c-2.102-1.958-3.985-3.948-5.651-5.977
				c-1.668-2.027-2.989-4.346-3.966-6.955c-0.978-2.608-1.468-5.686-1.468-9.237c0-6.808,1.936-12.116,5.814-15.918
				c3.872-3.803,9.073-5.959,15.592-6.465v-9.671h5.217v9.671c3.913,0.217,7.118,1.106,9.617,2.662
				c2.499,1.559,4.4,3.514,5.704,5.868c1.304,2.354,2.244,4.928,2.825,7.716c0.578,2.788,0.94,5.487,1.087,8.096l-15.541,2.282
				c-0.072-2.681-0.289-5.053-0.651-7.118c-0.364-2.065-1.015-3.674-1.955-4.837c-0.943-1.157-2.391-1.701-4.346-1.628
				c-2.03,0.072-3.57,0.868-4.62,2.391c-1.05,1.521-1.575,3.222-1.575,5.107c0,3.332,0.795,6.012,2.392,8.04
				c1.591,2.03,3.404,3.985,5.431,5.868l9.02,7.825c2.392,2.172,4.601,4.526,6.628,7.062c2.027,2.536,3.658,5.343,4.89,8.422
				s1.848,6.609,1.848,10.594c0,3.84-0.779,7.335-2.338,10.485c-1.559,3.152-3.803,5.704-6.735,7.662
				c-2.935,1.955-6.395,3.115-10.377,3.476v10.214H371.055z"/>
		</g>
		<ellipse style="opacity:0.35;fill:#FFFFFF;" cx="409.488" cy="298.223" rx="32.565" ry="31.527"/>
	</g>
</g>
<g id="Floor">
	
		<line style="fill:none;stroke:#263238;stroke-linecap:round;stroke-linejoin:round;stroke-miterlimit:10;" x1="16.033" y1="455.466" x2="737.36" y2="455.466"/>
</g>
</svg>
