<svg width="32" height="32" viewBox="0 0 32 32" fill="none" xmlns="http://www.w3.org/2000/svg">
<path d="M27.5085 22.1175C26.801 20.9 25.7498 17.4662 25.7498 13C25.7498 10.4141 24.7226 7.93419 22.8941 6.10571C21.0656 4.27723 18.5856 3.25 15.9998 3.25C13.4139 3.25 10.934 4.27723 9.1055 6.10571C7.27702 7.93419 6.24979 10.4141 6.24979 13C6.24979 17.4675 5.19729 20.9 4.48979 22.1175C4.33456 22.3833 4.25219 22.6854 4.25099 22.9932C4.24979 23.301 4.32981 23.6037 4.48297 23.8707C4.63613 24.1377 4.85701 24.3596 5.12333 24.514C5.38964 24.6684 5.69196 24.7498 5.99979 24.75H11.3098C11.492 25.8618 12.0634 26.8727 12.922 27.6021C13.7807 28.3315 14.8706 28.732 15.9973 28.732C17.1239 28.732 18.2139 28.3315 19.0725 27.6021C19.9312 26.8727 20.5026 25.8618 20.6848 24.75H25.9998C26.3074 24.7494 26.6094 24.6676 26.8754 24.5131C27.1413 24.3585 27.3619 24.1366 27.5147 23.8696C27.6676 23.6027 27.7474 23.3002 27.7461 22.9926C27.7448 22.685 27.6624 22.3831 27.5073 22.1175H27.5085ZM15.9998 27.25C15.2684 27.2498 14.5585 27.0029 13.9848 26.5492C13.4112 26.0955 13.0073 25.4616 12.8385 24.75H19.161C18.9923 25.4616 18.5884 26.0955 18.0147 26.5492C17.4411 27.0029 16.7312 27.2498 15.9998 27.25ZM26.2135 23.125C26.1929 23.1633 26.1622 23.1952 26.1248 23.2172C26.0873 23.2393 26.0445 23.2506 26.001 23.25H5.99979C5.95632 23.2506 5.91352 23.2393 5.87605 23.2172C5.83858 23.1952 5.80788 23.1633 5.78729 23.125C5.76534 23.087 5.75379 23.0439 5.75379 23C5.75379 22.9561 5.76534 22.913 5.78729 22.875C6.73354 21.25 7.74979 17.4613 7.74979 13C7.74979 10.812 8.61898 8.71354 10.1662 7.16637C11.7133 5.61919 13.8118 4.75 15.9998 4.75C18.1878 4.75 20.2862 5.61919 21.8334 7.16637C23.3806 8.71354 24.2498 10.812 24.2498 13C24.2498 17.46 25.2673 21.2437 26.2135 22.875C26.2355 22.913 26.247 22.9561 26.247 23C26.247 23.0439 26.2355 23.087 26.2135 23.125Z" fill="#585B5D"/>
</svg>
