<svg width="28" height="28" viewBox="0 0 28 28" fill="none" xmlns="http://www.w3.org/2000/svg">
<path d="M14 0.5C11.33 0.5 8.71987 1.29176 6.49981 2.77516C4.27974 4.25856 2.54942 6.36697 1.52763 8.83377C0.505849 11.3006 0.238504 14.015 0.759405 16.6337C1.28031 19.2525 2.56606 21.6579 4.45406 23.5459C6.34207 25.434 8.74754 26.7197 11.3663 27.2406C13.985 27.7615 16.6994 27.4942 19.1662 26.4724C21.633 25.4506 23.7414 23.7203 25.2248 21.5002C26.7082 19.2801 27.5 16.67 27.5 14C27.496 10.4208 26.0724 6.98932 23.5416 4.45844C21.0107 1.92756 17.5792 0.50397 14 0.5ZM14 24.5C11.9233 24.5 9.89324 23.8842 8.16652 22.7304C6.4398 21.5767 5.09399 19.9368 4.29927 18.0182C3.50455 16.0996 3.29662 13.9884 3.70176 11.9516C4.10691 9.91475 5.10693 8.04383 6.57538 6.57538C8.04384 5.10693 9.91476 4.1069 11.9516 3.70175C13.9884 3.29661 16.0996 3.50454 18.0182 4.29926C19.9368 5.09399 21.5767 6.4398 22.7304 8.16651C23.8842 9.89323 24.5 11.9233 24.5 14C24.497 16.7839 23.3898 19.4528 21.4213 21.4213C19.4529 23.3898 16.7839 24.497 14 24.5ZM20.0613 12.9388C20.2011 13.0781 20.312 13.2437 20.3878 13.426C20.4635 13.6083 20.5024 13.8038 20.5024 14.0012C20.5024 14.1987 20.4635 14.3941 20.3878 14.5765C20.312 14.7588 20.2011 14.9244 20.0613 15.0637L16.0613 19.0637C15.9217 19.2033 15.7561 19.314 15.5738 19.3895C15.3915 19.465 15.1961 19.5039 14.9988 19.5039C14.8014 19.5039 14.606 19.465 14.4237 19.3895C14.2414 19.314 14.0758 19.2033 13.9363 19.0637C13.7967 18.9242 13.686 18.7586 13.6105 18.5763C13.535 18.394 13.4962 18.1986 13.4962 18.0012C13.4962 17.8039 13.535 17.6085 13.6105 17.4262C13.686 17.2439 13.7967 17.0783 13.9363 16.9387L15.375 15.5H9.00001C8.60218 15.5 8.22065 15.342 7.93935 15.0607C7.65804 14.7794 7.50001 14.3978 7.50001 14C7.50001 13.6022 7.65804 13.2206 7.93935 12.9393C8.22065 12.658 8.60218 12.5 9.00001 12.5H15.375L13.935 11.0612C13.7955 10.9217 13.6848 10.7561 13.6093 10.5738C13.5338 10.3915 13.4949 10.1961 13.4949 9.99875C13.4949 9.80142 13.5338 9.60603 13.6093 9.42373C13.6848 9.24142 13.7955 9.07578 13.935 8.93625C14.0745 8.79672 14.2402 8.68604 14.4225 8.61053C14.6048 8.53501 14.8002 8.49615 14.9975 8.49615C15.1948 8.49615 15.3902 8.53501 15.5725 8.61053C15.7548 8.68604 15.9205 8.79672 16.06 8.93625L20.0613 12.9388Z" fill="#585B5D"/>
</svg>
